<?xml version="1.0" encoding="UTF-8"?>
<svg xmlns="http://www.w3.org/2000/svg" xmlns:xlink="http://www.w3.org/1999/xlink" width="99px" height="99px" viewBox="0 0 99 99" version="1.1">
<g id="surface1">
<path style=" stroke:none;fill-rule:nonzero;fill:rgb(28.235295%,28.235295%,28.235295%);fill-opacity:1;" d="M 12.777344 6.886719 C 13.109375 6.886719 13.4375 6.886719 13.769531 6.882812 C 14.671875 6.882812 15.574219 6.882812 16.476562 6.886719 C 17.453125 6.886719 18.429688 6.882812 19.40625 6.882812 C 21.316406 6.878906 23.226562 6.878906 25.132812 6.882812 C 26.6875 6.882812 28.238281 6.882812 29.792969 6.882812 C 30.011719 6.882812 30.234375 6.882812 30.460938 6.882812 C 30.910156 6.882812 31.359375 6.882812 31.808594 6.882812 C 36.019531 6.878906 40.230469 6.882812 44.441406 6.886719 C 48.054688 6.886719 51.664062 6.886719 55.277344 6.886719 C 59.472656 6.882812 63.667969 6.882812 67.863281 6.882812 C 68.3125 6.882812 68.761719 6.882812 69.207031 6.882812 C 69.539062 6.882812 69.539062 6.882812 69.875 6.882812 C 71.425781 6.882812 72.976562 6.882812 74.527344 6.882812 C 76.414062 6.878906 78.304688 6.878906 80.195312 6.882812 C 81.160156 6.886719 82.121094 6.886719 83.085938 6.882812 C 83.96875 6.882812 84.851562 6.882812 85.734375 6.886719 C 86.054688 6.886719 86.371094 6.886719 86.691406 6.886719 C 89.476562 6.875 91.984375 7.136719 94.164062 9.039062 C 95.722656 10.652344 96.246094 12.640625 96.222656 14.828125 C 96.222656 15.046875 96.222656 15.261719 96.226562 15.480469 C 96.230469 16.195312 96.226562 16.910156 96.222656 17.625 C 96.222656 18.140625 96.222656 18.65625 96.226562 19.171875 C 96.230469 20.421875 96.226562 21.671875 96.222656 22.921875 C 96.222656 23.9375 96.222656 24.953125 96.222656 25.96875 C 96.222656 26.113281 96.222656 26.257812 96.222656 26.410156 C 96.222656 26.703125 96.222656 26.996094 96.222656 27.292969 C 96.222656 29.894531 96.222656 32.496094 96.214844 35.097656 C 96.210938 37.617188 96.207031 40.136719 96.210938 42.660156 C 96.214844 45.40625 96.214844 48.15625 96.210938 50.90625 C 96.210938 51.199219 96.210938 51.492188 96.210938 51.789062 C 96.210938 51.933594 96.210938 52.078125 96.210938 52.226562 C 96.210938 53.238281 96.210938 54.253906 96.210938 55.269531 C 96.210938 56.503906 96.210938 57.742188 96.207031 58.980469 C 96.203125 59.609375 96.203125 60.238281 96.203125 60.871094 C 96.207031 61.554688 96.203125 62.242188 96.199219 62.925781 C 96.199219 63.121094 96.203125 63.320312 96.203125 63.523438 C 96.179688 65.660156 95.527344 67.273438 94.042969 68.804688 C 93.421875 69.375 92.800781 69.832031 92.039062 70.1875 C 91.828125 70.289062 91.617188 70.386719 91.402344 70.488281 C 90.257812 70.910156 89.105469 70.847656 87.902344 70.835938 C 87.644531 70.835938 87.382812 70.835938 87.125 70.835938 C 86.425781 70.835938 85.726562 70.832031 85.023438 70.828125 C 84.292969 70.824219 83.558594 70.824219 82.828125 70.824219 C 81.441406 70.820312 80.054688 70.816406 78.667969 70.8125 C 77.089844 70.804688 75.511719 70.800781 73.933594 70.796875 C 70.6875 70.792969 67.441406 70.78125 64.195312 70.769531 C 64.195312 74.46875 64.195312 78.171875 64.195312 81.984375 C 65.023438 81.976562 65.847656 81.972656 66.699219 81.964844 C 67.367188 81.960938 68.03125 81.957031 68.695312 81.953125 C 69.394531 81.953125 70.09375 81.945312 70.789062 81.941406 C 71.464844 81.933594 72.140625 81.929688 72.8125 81.929688 C 73.191406 81.925781 73.570312 81.921875 73.949219 81.917969 C 76.167969 81.917969 78.140625 82.230469 79.859375 83.726562 C 82.167969 86.292969 81.210938 87.710938 81.210938 92.039062 C 60.28125 92.039062 39.351562 92.039062 17.789062 92.039062 C 17.789062 85.242188 17.789062 85.242188 18.910156 83.882812 C 20.558594 82.46875 22.300781 81.960938 24.453125 81.957031 C 24.589844 81.957031 24.726562 81.957031 24.867188 81.957031 C 25.15625 81.957031 25.445312 81.957031 25.734375 81.960938 C 26.171875 81.960938 26.613281 81.960938 27.050781 81.957031 C 27.332031 81.957031 27.613281 81.957031 27.898438 81.957031 C 28.152344 81.957031 28.40625 81.960938 28.667969 81.960938 C 29.375 81.984375 30.046875 82.070312 30.742188 82.179688 C 36.054688 82.539062 41.089844 81.097656 45.140625 77.578125 C 48.554688 74.511719 51.210938 69.992188 51.46875 65.316406 C 51.53125 63.054688 51.445312 60.84375 51.242188 58.585938 C 64 58.585938 76.765625 58.585938 89.914062 58.585938 C 89.847656 43.71875 89.785156 28.851562 89.71875 13.535156 C 89.15625 13.253906 88.667969 13.316406 88.042969 13.316406 C 87.839844 13.316406 87.839844 13.316406 87.632812 13.316406 C 87.175781 13.316406 86.71875 13.316406 86.265625 13.316406 C 85.933594 13.316406 85.605469 13.316406 85.277344 13.316406 C 84.371094 13.316406 83.464844 13.316406 82.558594 13.316406 C 81.582031 13.316406 80.605469 13.316406 79.628906 13.316406 C 77.714844 13.316406 75.800781 13.316406 73.886719 13.316406 C 72.332031 13.316406 70.777344 13.316406 69.21875 13.316406 C 69 13.316406 68.777344 13.316406 68.550781 13.316406 C 68.101562 13.316406 67.652344 13.316406 67.203125 13.316406 C 62.992188 13.316406 58.78125 13.316406 54.566406 13.316406 C 50.949219 13.316406 47.332031 13.316406 43.710938 13.316406 C 39.515625 13.316406 35.316406 13.316406 31.121094 13.316406 C 30.671875 13.316406 30.226562 13.316406 29.78125 13.316406 C 29.449219 13.316406 29.449219 13.316406 29.113281 13.316406 C 27.558594 13.316406 26.003906 13.316406 24.449219 13.316406 C 22.558594 13.316406 20.664062 13.316406 18.773438 13.316406 C 17.804688 13.316406 16.839844 13.316406 15.871094 13.316406 C 14.988281 13.316406 14.105469 13.316406 13.222656 13.316406 C 12.902344 13.316406 12.582031 13.316406 12.257812 13.316406 C 11.824219 13.316406 11.390625 13.316406 10.957031 13.316406 C 10.71875 13.316406 10.476562 13.316406 10.226562 13.316406 C 9.679688 13.304688 9.679688 13.304688 9.28125 13.535156 C 9.21875 28.402344 9.152344 43.269531 9.085938 58.585938 C 10.746094 58.585938 12.40625 58.585938 14.117188 58.585938 C 14.050781 59.03125 13.988281 59.472656 13.921875 59.929688 C 13.429688 63.75 13.914062 67.109375 15.082031 70.769531 C 14.179688 70.789062 13.28125 70.804688 12.378906 70.8125 C 12.074219 70.816406 11.769531 70.820312 11.460938 70.828125 C 8.761719 70.886719 6.792969 70.515625 4.726562 68.617188 C 3.570312 67.433594 2.878906 65.90625 2.875 64.253906 C 2.871094 64.070312 2.871094 63.886719 2.871094 63.695312 C 2.871094 63.496094 2.871094 63.296875 2.871094 63.089844 C 2.871094 62.875 2.867188 62.660156 2.867188 62.441406 C 2.867188 61.722656 2.863281 61.003906 2.863281 60.285156 C 2.863281 59.769531 2.859375 59.253906 2.859375 58.738281 C 2.855469 57.195312 2.851562 55.648438 2.847656 54.101562 C 2.847656 53.664062 2.847656 53.226562 2.847656 52.789062 C 2.839844 50.078125 2.835938 47.363281 2.835938 44.648438 C 2.832031 44.019531 2.832031 43.390625 2.832031 42.761719 C 2.832031 42.605469 2.832031 42.449219 2.832031 42.289062 C 2.828125 39.757812 2.824219 37.230469 2.816406 34.699219 C 2.808594 32.101562 2.800781 29.503906 2.800781 26.90625 C 2.800781 25.445312 2.796875 23.988281 2.792969 22.53125 C 2.785156 21.289062 2.785156 20.046875 2.785156 18.804688 C 2.789062 18.171875 2.785156 17.539062 2.78125 16.902344 C 2.777344 16.214844 2.78125 15.527344 2.78125 14.839844 C 2.777344 14.542969 2.777344 14.542969 2.773438 14.242188 C 2.796875 12.285156 3.460938 10.460938 4.835938 9.039062 C 7.152344 7.015625 9.839844 6.875 12.777344 6.886719 Z M 12.777344 6.886719 "/>
<path style=" stroke:none;fill-rule:nonzero;fill:rgb(47.843137%,0.784314%,3.137255%);fill-opacity:1;" d="M 42.648438 50.460938 C 45.84375 53.128906 48.195312 56.699219 48.726562 60.90625 C 49.117188 65.863281 48.09375 70.195312 44.859375 74.054688 C 42.121094 77.140625 38.183594 79.234375 34.03125 79.496094 C 29.78125 79.652344 25.839844 78.636719 22.429688 75.992188 C 21.839844 76.257812 21.410156 76.566406 20.9375 77.007812 C 20.738281 77.195312 20.738281 77.195312 20.535156 77.386719 C 20.398438 77.515625 20.261719 77.644531 20.121094 77.777344 C 19.984375 77.90625 19.847656 78.03125 19.710938 78.164062 C 18.945312 78.882812 18.246094 79.617188 17.59375 80.4375 C 17.722656 80.628906 17.851562 80.820312 17.984375 81.015625 C 17.996094 81.910156 17.8125 82.421875 17.222656 83.070312 C 16.976562 83.320312 16.726562 83.566406 16.472656 83.808594 C 16.335938 83.941406 16.203125 84.074219 16.066406 84.210938 C 15.640625 84.632812 15.210938 85.046875 14.78125 85.464844 C 14.496094 85.746094 14.210938 86.027344 13.925781 86.304688 C 12.773438 87.441406 11.613281 88.5625 10.386719 89.621094 C 9.976562 89.980469 9.589844 90.363281 9.207031 90.757812 C 8.675781 91.304688 8.378906 91.601562 7.613281 91.75 C 6.617188 91.601562 6.113281 90.992188 5.414062 90.296875 C 5.277344 90.167969 5.144531 90.039062 5.003906 89.90625 C 4.617188 89.527344 4.242188 89.140625 3.867188 88.75 C 3.765625 88.652344 3.660156 88.554688 3.554688 88.449219 C 3.0625 87.9375 2.828125 87.519531 2.78125 86.820312 C 2.839844 85.960938 3.25 85.453125 3.867188 84.882812 C 4.082031 84.699219 4.300781 84.515625 4.519531 84.328125 C 5.714844 83.289062 6.8125 82.144531 7.929688 81.015625 C 10.519531 78.394531 10.519531 78.394531 11.699219 77.394531 C 12.011719 77.136719 12.011719 77.136719 12.375 76.765625 C 13.773438 76.695312 13.773438 76.695312 14.269531 76.921875 C 14.742188 77.007812 14.742188 77.007812 15.191406 76.570312 C 15.378906 76.382812 15.5625 76.195312 15.742188 76.003906 C 15.839844 75.902344 15.9375 75.804688 16.039062 75.703125 C 16.351562 75.386719 16.660156 75.066406 16.96875 74.746094 C 17.179688 74.53125 17.386719 74.316406 17.597656 74.101562 C 18.117188 73.574219 18.628906 73.042969 19.140625 72.507812 C 19.03125 72.3125 18.921875 72.117188 18.808594 71.914062 C 16.484375 67.769531 15.84375 63.402344 17.015625 58.78125 C 18.347656 54.53125 21.03125 51.039062 24.976562 48.902344 C 30.75 46.011719 37.472656 46.621094 42.648438 50.460938 Z M 24.75 56.847656 C 22.855469 59.386719 22.386719 62.074219 22.625 65.164062 C 23.101562 67.652344 24.582031 69.964844 26.609375 71.46875 C 29.097656 73.128906 31.6875 73.730469 34.628906 73.25 C 37.394531 72.667969 39.519531 71.089844 41.1875 68.835938 C 42.625 66.304688 43.152344 63.742188 42.503906 60.871094 C 41.917969 58.816406 40.949219 57.390625 39.445312 55.882812 C 39.339844 55.769531 39.230469 55.65625 39.121094 55.542969 C 37.261719 53.769531 34.625 53.074219 32.117188 53.125 C 29.191406 53.359375 26.71875 54.691406 24.75 56.847656 Z M 24.75 56.847656 "/>
<path style=" stroke:none;fill-rule:nonzero;fill:rgb(47.843137%,0.784314%,3.137255%);fill-opacity:1;" d="M 16.910156 19.09375 C 17.058594 19.097656 17.203125 19.097656 17.355469 19.097656 C 17.507812 19.097656 17.664062 19.097656 17.824219 19.097656 C 18.335938 19.097656 18.847656 19.101562 19.363281 19.105469 C 19.714844 19.105469 20.070312 19.105469 20.425781 19.105469 C 21.363281 19.109375 22.296875 19.113281 23.230469 19.117188 C 24.1875 19.121094 25.140625 19.121094 26.09375 19.125 C 27.964844 19.128906 29.839844 19.132812 31.710938 19.140625 C 31.714844 19.308594 31.714844 19.476562 31.71875 19.652344 C 31.730469 20.277344 31.746094 20.90625 31.761719 21.535156 C 31.769531 21.808594 31.773438 22.078125 31.777344 22.347656 C 31.804688 24.847656 31.804688 24.847656 32.90625 27.035156 C 35.378906 28.957031 38.921875 28.148438 41.765625 28.230469 C 41.765625 34.226562 41.765625 40.226562 41.765625 46.40625 C 40.984375 46.25 40.496094 46.09375 39.796875 45.765625 C 35.121094 43.8125 30.019531 43.984375 25.34375 45.800781 C 23.460938 46.578125 21.867188 47.632812 20.304688 48.921875 C 20.175781 49.019531 20.050781 49.117188 19.917969 49.21875 C 18.644531 50.25 17.367188 51.699219 16.628906 53.171875 C 15.6875 53.003906 15.6875 53.003906 15.46875 52.789062 C 15.449219 52.359375 15.445312 51.933594 15.441406 51.503906 C 15.441406 51.367188 15.441406 51.234375 15.441406 51.09375 C 15.441406 50.632812 15.441406 50.175781 15.441406 49.71875 C 15.441406 49.390625 15.4375 49.0625 15.4375 48.738281 C 15.4375 47.847656 15.4375 46.957031 15.4375 46.066406 C 15.4375 45.320312 15.433594 44.578125 15.433594 43.835938 C 15.433594 42.085938 15.433594 40.335938 15.433594 38.585938 C 15.433594 36.777344 15.429688 34.964844 15.429688 33.15625 C 15.425781 31.605469 15.425781 30.054688 15.425781 28.503906 C 15.425781 27.578125 15.425781 26.652344 15.421875 25.722656 C 15.421875 24.851562 15.421875 23.980469 15.421875 23.109375 C 15.421875 22.789062 15.421875 22.46875 15.421875 22.144531 C 15.417969 21.710938 15.417969 21.273438 15.421875 20.835938 C 15.421875 20.46875 15.421875 20.46875 15.421875 20.09375 C 15.507812 19.070312 15.996094 19.097656 16.910156 19.09375 Z M 18.367188 28.8125 C 18 29.300781 17.980469 29.554688 18.007812 30.175781 C 18.207031 30.847656 18.355469 30.972656 18.949219 31.324219 C 19.433594 31.414062 19.433594 31.414062 19.964844 31.402344 C 20.167969 31.40625 20.371094 31.40625 20.578125 31.410156 C 20.796875 31.410156 21.015625 31.410156 21.238281 31.40625 C 21.464844 31.410156 21.6875 31.410156 21.917969 31.410156 C 22.394531 31.414062 22.867188 31.414062 23.34375 31.410156 C 24.070312 31.410156 24.796875 31.414062 25.523438 31.421875 C 25.984375 31.421875 26.445312 31.421875 26.90625 31.421875 C 27.125 31.421875 27.34375 31.425781 27.566406 31.425781 C 27.871094 31.425781 27.871094 31.425781 28.179688 31.421875 C 28.359375 31.421875 28.535156 31.421875 28.71875 31.421875 C 29.34375 31.292969 29.570312 31.03125 29.96875 30.550781 C 30.179688 30.183594 30.179688 30.183594 30.164062 29.777344 C 29.847656 29.109375 29.625 28.839844 29.003906 28.421875 C 28.550781 28.367188 28.550781 28.367188 28.046875 28.375 C 27.851562 28.371094 27.65625 28.371094 27.453125 28.371094 C 27.246094 28.371094 27.035156 28.371094 26.816406 28.371094 C 26.601562 28.371094 26.386719 28.371094 26.160156 28.371094 C 25.703125 28.371094 25.246094 28.371094 24.789062 28.375 C 24.089844 28.375 23.386719 28.375 22.6875 28.371094 C 22.242188 28.371094 21.800781 28.371094 21.355469 28.371094 C 21.144531 28.371094 20.933594 28.371094 20.71875 28.371094 C 20.523438 28.371094 20.328125 28.371094 20.125 28.375 C 19.953125 28.375 19.78125 28.375 19.605469 28.375 C 19.105469 28.425781 18.796875 28.546875 18.367188 28.8125 Z M 18.199219 34.757812 C 17.894531 35.363281 17.984375 35.710938 18.175781 36.351562 C 18.546875 36.839844 18.738281 36.925781 19.335938 37.125 C 19.789062 37.144531 20.246094 37.152344 20.699219 37.15625 C 20.90625 37.15625 20.90625 37.15625 21.117188 37.160156 C 21.574219 37.160156 22.03125 37.164062 22.488281 37.164062 C 22.804688 37.164062 23.125 37.167969 23.441406 37.167969 C 24.109375 37.167969 24.773438 37.171875 25.441406 37.171875 C 26.292969 37.171875 27.144531 37.175781 28 37.183594 C 28.65625 37.1875 29.3125 37.1875 29.96875 37.1875 C 30.28125 37.1875 30.597656 37.191406 30.910156 37.191406 C 31.351562 37.195312 31.789062 37.195312 32.230469 37.195312 C 32.605469 37.195312 32.605469 37.195312 32.988281 37.195312 C 33.695312 37.121094 34.050781 36.976562 34.609375 36.546875 C 35.058594 36 35.058594 36 34.960938 35.382812 C 34.800781 34.792969 34.71875 34.574219 34.226562 34.226562 C 33.523438 33.988281 32.835938 34.003906 32.101562 34.003906 C 31.964844 34.003906 31.832031 34 31.695312 34 C 31.25 34 30.808594 34 30.363281 34 C 30.054688 34 29.746094 33.996094 29.4375 33.996094 C 28.792969 33.996094 28.144531 33.996094 27.496094 33.996094 C 26.667969 33.996094 25.84375 33.992188 25.015625 33.988281 C 24.375 33.988281 23.738281 33.988281 23.101562 33.988281 C 22.796875 33.988281 22.492188 33.984375 22.1875 33.984375 C 21.757812 33.984375 21.332031 33.984375 20.90625 33.984375 C 20.660156 33.984375 20.417969 33.984375 20.167969 33.984375 C 19.355469 34.042969 18.796875 34.199219 18.199219 34.757812 Z M 17.984375 40.796875 C 17.835938 41.289062 17.835938 41.289062 17.984375 41.765625 C 18.34375 42.199219 18.636719 42.480469 19.140625 42.734375 C 19.605469 42.753906 20.058594 42.761719 20.519531 42.761719 C 20.734375 42.765625 20.734375 42.765625 20.949219 42.765625 C 21.421875 42.769531 21.890625 42.769531 22.359375 42.773438 C 22.6875 42.773438 23.015625 42.773438 23.339844 42.773438 C 24.027344 42.777344 24.710938 42.777344 25.398438 42.777344 C 26.273438 42.78125 27.152344 42.785156 28.03125 42.789062 C 28.707031 42.792969 29.378906 42.792969 30.054688 42.796875 C 30.378906 42.796875 30.703125 42.796875 31.027344 42.800781 C 31.480469 42.804688 31.933594 42.800781 32.386719 42.800781 C 32.585938 42.804688 32.585938 42.804688 32.789062 42.808594 C 33.617188 42.800781 34.152344 42.675781 34.804688 42.152344 C 35.0625 41.503906 35.0625 41.503906 35 40.796875 C 34.484375 40.121094 34.195312 39.859375 33.347656 39.710938 C 33.082031 39.703125 32.816406 39.703125 32.550781 39.707031 C 32.40625 39.707031 32.261719 39.703125 32.109375 39.703125 C 31.632812 39.699219 31.152344 39.699219 30.671875 39.703125 C 30.335938 39.703125 30.003906 39.703125 29.667969 39.699219 C 28.96875 39.699219 28.269531 39.703125 27.566406 39.707031 C 26.671875 39.710938 25.773438 39.707031 24.878906 39.703125 C 24.1875 39.699219 23.496094 39.699219 22.808594 39.703125 C 22.476562 39.703125 22.144531 39.703125 21.816406 39.699219 C 21.351562 39.699219 20.890625 39.703125 20.429688 39.707031 C 20.292969 39.703125 20.15625 39.703125 20.015625 39.699219 C 19.015625 39.722656 18.589844 40.023438 17.984375 40.796875 Z M 17.984375 40.796875 "/>
<path style=" stroke:none;fill-rule:nonzero;fill:rgb(47.843137%,0.784314%,3.137255%);fill-opacity:1;" d="M 82.359375 16.269531 C 83.554688 16.945312 84.25 17.628906 84.691406 18.949219 C 84.820312 20.386719 84.917969 21.699219 84.011719 22.890625 C 83.238281 23.730469 82.535156 24.261719 81.40625 24.554688 C 81.003906 24.542969 80.601562 24.515625 80.199219 24.476562 C 79.160156 24.460938 78.636719 24.617188 77.835938 25.277344 C 77.511719 25.59375 77.195312 25.917969 76.882812 26.25 C 76.71875 26.40625 76.554688 26.558594 76.382812 26.71875 C 75.484375 27.636719 75.484375 27.636719 75.164062 28.839844 C 75.210938 29.449219 75.210938 29.449219 75.328125 30.023438 C 75.488281 31.0625 75.109375 31.871094 74.542969 32.722656 C 73.6875 33.796875 72.859375 34.304688 71.5 34.472656 C 70.085938 34.535156 68.960938 34.1875 67.90625 33.234375 C 67.082031 32.347656 66.746094 31.347656 66.671875 30.152344 C 66.691406 29.964844 66.691406 29.964844 66.710938 29.777344 C 66.535156 29.722656 66.359375 29.664062 66.175781 29.609375 C 65.546875 29.390625 65.546875 29.390625 65.136719 29.160156 C 64.667969 28.957031 64.484375 29.050781 64 29.195312 C 63.761719 29.296875 63.527344 29.398438 63.289062 29.5 C 62.242188 29.898438 61.222656 29.910156 60.140625 29.628906 C 59.539062 29.523438 59.539062 29.523438 59.058594 29.910156 C 58.902344 30.066406 58.75 30.222656 58.585938 30.382812 C 58.050781 30.910156 57.554688 31.378906 56.921875 31.785156 C 56.375 32.382812 56.410156 32.515625 56.4375 33.292969 C 56.445312 33.480469 56.457031 33.664062 56.464844 33.855469 C 56.457031 34.9375 56.082031 35.898438 55.367188 36.714844 C 54.167969 37.800781 53.074219 37.988281 51.476562 37.957031 C 50.234375 37.839844 49.460938 37.378906 48.652344 36.4375 C 47.953125 35.40625 47.691406 34.25 47.796875 33.011719 C 48.101562 31.570312 48.910156 30.621094 50.078125 29.777344 C 51.160156 29.273438 52.390625 29.207031 53.527344 29.558594 C 54.339844 29.589844 54.597656 29.316406 55.1875 28.796875 C 55.363281 28.628906 55.363281 28.628906 55.542969 28.460938 C 55.664062 28.351562 55.785156 28.242188 55.90625 28.132812 C 56.359375 27.722656 56.804688 27.308594 57.234375 26.875 C 57.257812 26.464844 57.257812 26.464844 57.222656 25.996094 C 57.199219 24.664062 57.503906 23.671875 58.238281 22.5625 C 59.28125 21.566406 60.132812 21.222656 61.585938 21.171875 C 62.890625 21.222656 63.777344 21.449219 64.71875 22.363281 C 65.351562 23.113281 65.601562 23.730469 65.777344 24.691406 C 65.9375 25.367188 66.042969 25.644531 66.582031 26.09375 C 67.566406 26.621094 67.566406 26.621094 68.636719 26.566406 C 68.878906 26.417969 69.117188 26.265625 69.351562 26.101562 C 69.988281 25.828125 70.472656 25.976562 71.15625 26.066406 C 72.265625 26.113281 72.738281 25.964844 73.558594 25.207031 C 74.355469 24.390625 75.09375 23.523438 75.796875 22.625 C 75.90625 22.484375 76.015625 22.347656 76.128906 22.207031 C 76.421875 21.875 76.421875 21.875 76.316406 21.511719 C 76.273438 21.367188 76.230469 21.222656 76.183594 21.078125 C 76.070312 19.773438 76.304688 18.738281 76.957031 17.59375 C 78.324219 16.019531 80.386719 15.503906 82.359375 16.269531 Z M 79.6875 19.566406 C 79.421875 19.917969 79.421875 19.917969 79.496094 20.410156 C 79.632812 20.945312 79.632812 20.945312 80.242188 21.269531 C 80.753906 21.210938 80.753906 21.210938 81.210938 21.078125 C 81.34375 20.417969 81.34375 20.417969 81.40625 19.722656 C 81.050781 19.292969 81.050781 19.292969 80.546875 19.277344 C 80.050781 19.300781 80.050781 19.300781 79.6875 19.566406 Z M 60.726562 24.992188 C 60.472656 25.5 60.472656 25.5 60.617188 25.957031 C 60.894531 26.332031 60.894531 26.332031 61.367188 26.492188 C 61.90625 26.542969 61.90625 26.542969 62.320312 26.117188 C 62.429688 25.984375 62.539062 25.851562 62.648438 25.71875 C 62.4375 25.089844 62.4375 25.089844 62.070312 24.554688 C 61.378906 24.449219 61.191406 24.453125 60.726562 24.992188 Z M 70.203125 29.523438 C 69.945312 29.96875 69.945312 29.96875 70.09375 30.492188 C 70.34375 30.976562 70.34375 30.976562 70.855469 31.117188 C 71.398438 31.179688 71.398438 31.179688 71.929688 30.742188 C 72.011719 30.164062 72.011719 30.164062 71.929688 29.585938 C 71.578125 29.15625 71.578125 29.15625 71.070312 29.125 C 70.558594 29.15625 70.558594 29.15625 70.203125 29.523438 Z M 51.46875 32.894531 C 51.167969 33.371094 51.167969 33.667969 51.242188 34.226562 C 51.59375 34.652344 51.59375 34.652344 52.097656 34.683594 C 52.613281 34.652344 52.613281 34.652344 52.96875 34.285156 C 53.226562 33.839844 53.226562 33.839844 53.078125 33.316406 C 52.824219 32.832031 52.824219 32.832031 52.316406 32.679688 C 51.820312 32.632812 51.820312 32.632812 51.46875 32.894531 Z M 51.46875 32.894531 "/>
<path style=" stroke:none;fill-rule:nonzero;fill:rgb(47.843137%,0.784314%,3.137255%);fill-opacity:1;" d="M 80.425781 28.96875 C 80.644531 28.964844 80.859375 28.964844 81.082031 28.960938 C 81.394531 28.960938 81.394531 28.960938 81.710938 28.960938 C 82 28.957031 82 28.957031 82.292969 28.957031 C 82.757812 29.003906 82.757812 29.003906 83.144531 29.390625 C 83.195312 29.820312 83.195312 29.820312 83.195312 30.367188 C 83.195312 30.574219 83.199219 30.78125 83.199219 30.992188 C 83.199219 31.21875 83.199219 31.449219 83.199219 31.683594 C 83.199219 32.039062 83.199219 32.039062 83.199219 32.40625 C 83.203125 33.0625 83.203125 33.71875 83.203125 34.375 C 83.203125 34.921875 83.203125 35.46875 83.203125 36.019531 C 83.207031 37.308594 83.207031 38.597656 83.207031 39.890625 C 83.203125 41.222656 83.207031 42.558594 83.210938 43.890625 C 83.214844 45.035156 83.214844 46.175781 83.214844 47.320312 C 83.214844 48.003906 83.214844 48.6875 83.21875 49.371094 C 83.21875 50.132812 83.21875 50.894531 83.214844 51.65625 C 83.21875 51.996094 83.21875 51.996094 83.222656 52.34375 C 83.21875 52.550781 83.21875 52.757812 83.21875 52.972656 C 83.21875 53.152344 83.21875 53.332031 83.21875 53.515625 C 83.179688 53.730469 83.179688 53.730469 83.144531 53.945312 C 82.511719 54.371094 82.324219 54.382812 81.589844 54.378906 C 81.402344 54.378906 81.214844 54.378906 81.019531 54.378906 C 80.824219 54.375 80.628906 54.371094 80.425781 54.371094 C 80.226562 54.371094 80.03125 54.371094 79.828125 54.371094 C 78.363281 54.359375 78.363281 54.359375 77.921875 54.140625 C 77.917969 50.890625 77.914062 47.644531 77.914062 44.394531 C 77.914062 42.886719 77.910156 41.378906 77.910156 39.867188 C 77.90625 38.554688 77.90625 37.242188 77.90625 35.925781 C 77.90625 35.230469 77.90625 34.535156 77.902344 33.835938 C 77.902344 33.0625 77.902344 32.285156 77.902344 31.507812 C 77.902344 31.277344 77.902344 31.042969 77.898438 30.804688 C 77.898438 30.59375 77.898438 30.382812 77.902344 30.167969 C 77.902344 29.984375 77.898438 29.800781 77.898438 29.609375 C 77.960938 28.542969 79.621094 28.96875 80.425781 28.96875 Z M 80.425781 28.96875 "/>
<path style=" stroke:none;fill-rule:nonzero;fill:rgb(47.843137%,0.784314%,3.137255%);fill-opacity:1;" d="M 60.238281 35.746094 C 60.453125 35.746094 60.671875 35.746094 60.894531 35.746094 C 61.121094 35.746094 61.351562 35.746094 61.585938 35.746094 C 61.925781 35.746094 61.925781 35.746094 62.277344 35.746094 C 62.601562 35.746094 62.601562 35.746094 62.933594 35.746094 C 63.132812 35.746094 63.332031 35.746094 63.539062 35.746094 C 64 35.773438 64 35.773438 64.195312 35.964844 C 64.214844 36.523438 64.222656 37.074219 64.222656 37.632812 C 64.222656 37.804688 64.226562 37.980469 64.226562 38.160156 C 64.226562 38.742188 64.226562 39.324219 64.226562 39.902344 C 64.226562 40.304688 64.230469 40.707031 64.230469 41.109375 C 64.230469 41.953125 64.230469 42.796875 64.230469 43.640625 C 64.230469 44.722656 64.234375 45.808594 64.238281 46.890625 C 64.238281 47.722656 64.238281 48.550781 64.238281 49.382812 C 64.238281 49.78125 64.242188 50.183594 64.242188 50.582031 C 64.242188 51.140625 64.242188 51.699219 64.242188 52.253906 C 64.242188 52.421875 64.246094 52.589844 64.246094 52.761719 C 64.238281 53.902344 64.238281 53.902344 63.808594 54.335938 C 63.363281 54.382812 63.363281 54.382812 62.8125 54.386719 C 62.515625 54.386719 62.515625 54.386719 62.210938 54.386719 C 62.003906 54.386719 61.796875 54.382812 61.585938 54.382812 C 61.273438 54.382812 61.273438 54.382812 60.957031 54.386719 C 60.757812 54.386719 60.5625 54.386719 60.359375 54.386719 C 60.175781 54.386719 59.996094 54.382812 59.808594 54.382812 C 59.359375 54.335938 59.359375 54.335938 58.976562 53.945312 C 58.9375 53.378906 58.925781 52.824219 58.925781 52.253906 C 58.925781 52.082031 58.925781 51.90625 58.925781 51.726562 C 58.925781 51.144531 58.929688 50.5625 58.929688 49.984375 C 58.929688 49.582031 58.929688 49.179688 58.929688 48.777344 C 58.929688 47.933594 58.933594 47.089844 58.933594 46.246094 C 58.9375 45.160156 58.9375 44.078125 58.9375 42.996094 C 58.9375 42.164062 58.941406 41.332031 58.941406 40.503906 C 58.941406 40.101562 58.941406 39.703125 58.941406 39.304688 C 58.941406 38.746094 58.945312 38.1875 58.945312 37.632812 C 58.945312 37.464844 58.945312 37.296875 58.945312 37.125 C 58.953125 35.832031 58.957031 35.746094 60.238281 35.746094 Z M 60.238281 35.746094 "/>
<path style=" stroke:none;fill-rule:nonzero;fill:rgb(47.843137%,0.784314%,3.137255%);fill-opacity:1;" d="M 69.710938 39.226562 C 69.929688 39.226562 70.144531 39.226562 70.367188 39.226562 C 70.597656 39.226562 70.824219 39.226562 71.058594 39.226562 C 71.402344 39.226562 71.402344 39.226562 71.75 39.226562 C 72.074219 39.226562 72.074219 39.226562 72.40625 39.226562 C 72.605469 39.226562 72.808594 39.226562 73.015625 39.226562 C 73.476562 39.25 73.476562 39.25 73.671875 39.445312 C 73.691406 39.894531 73.699219 40.339844 73.699219 40.792969 C 73.703125 40.933594 73.703125 41.074219 73.703125 41.21875 C 73.707031 41.6875 73.707031 42.15625 73.710938 42.621094 C 73.710938 42.945312 73.710938 43.269531 73.710938 43.59375 C 73.714844 44.273438 73.714844 44.953125 73.714844 45.632812 C 73.71875 46.507812 73.722656 47.378906 73.726562 48.253906 C 73.730469 48.921875 73.730469 49.589844 73.734375 50.261719 C 73.734375 50.582031 73.734375 50.90625 73.738281 51.226562 C 73.742188 51.675781 73.738281 52.125 73.738281 52.574219 C 73.742188 52.710938 73.742188 52.84375 73.746094 52.980469 C 73.742188 53.351562 73.742188 53.351562 73.671875 53.945312 C 73.039062 54.367188 72.847656 54.382812 72.117188 54.386719 C 71.929688 54.386719 71.738281 54.386719 71.546875 54.386719 C 71.347656 54.386719 71.152344 54.382812 70.949219 54.382812 C 70.753906 54.382812 70.558594 54.386719 70.355469 54.386719 C 70.164062 54.386719 69.976562 54.386719 69.785156 54.386719 C 69.609375 54.386719 69.4375 54.382812 69.261719 54.382812 C 68.835938 54.335938 68.835938 54.335938 68.449219 53.945312 C 68.410156 53.484375 68.398438 53.039062 68.402344 52.574219 C 68.402344 52.433594 68.402344 52.292969 68.402344 52.148438 C 68.402344 51.679688 68.402344 51.210938 68.40625 50.742188 C 68.40625 50.417969 68.40625 50.097656 68.40625 49.773438 C 68.40625 49.09375 68.40625 48.414062 68.410156 47.734375 C 68.414062 46.859375 68.414062 45.988281 68.414062 45.113281 C 68.414062 44.445312 68.414062 43.773438 68.414062 43.105469 C 68.417969 42.785156 68.417969 42.460938 68.417969 42.140625 C 68.417969 41.691406 68.417969 41.242188 68.421875 40.792969 C 68.421875 40.65625 68.421875 40.523438 68.421875 40.386719 C 68.429688 39.210938 68.566406 39.226562 69.710938 39.226562 Z M 69.710938 39.226562 "/>
<path style=" stroke:none;fill-rule:nonzero;fill:rgb(47.843137%,0.784314%,3.137255%);fill-opacity:1;" d="M 38.09375 58.585938 C 38.800781 59.085938 39.023438 59.367188 39.179688 60.21875 C 38.953125 61.511719 37.96875 62.199219 37.015625 63.011719 C 36.429688 63.523438 35.859375 64.050781 35.289062 64.582031 C 34.46875 65.339844 33.648438 66.097656 32.800781 66.824219 C 32.523438 67.0625 32.253906 67.308594 31.988281 67.554688 C 31.359375 67.976562 30.921875 68.0625 30.164062 68.0625 C 29.21875 67.519531 28.464844 66.828125 27.699219 66.070312 C 27.585938 65.964844 27.476562 65.859375 27.359375 65.75 C 26.636719 65.035156 26.273438 64.460938 26.101562 63.421875 C 26.320312 62.789062 26.503906 62.410156 27.023438 61.984375 C 27.730469 61.804688 28.101562 61.847656 28.8125 62.070312 C 29.441406 62.601562 30 63.191406 30.550781 63.808594 C 31.160156 63.539062 31.585938 63.214844 32.0625 62.753906 C 32.203125 62.621094 32.34375 62.492188 32.484375 62.355469 C 32.628906 62.214844 32.773438 62.078125 32.917969 61.933594 C 36.601562 58.40625 36.601562 58.40625 38.09375 58.585938 Z M 38.09375 58.585938 "/>
<path style=" stroke:none;fill-rule:nonzero;fill:rgb(47.843137%,0.784314%,3.137255%);fill-opacity:1;" d="M 50.351562 46.164062 C 50.640625 46.167969 50.640625 46.167969 50.933594 46.167969 C 51.140625 46.167969 51.347656 46.167969 51.5625 46.167969 C 51.777344 46.171875 51.996094 46.175781 52.21875 46.175781 C 52.546875 46.175781 52.546875 46.175781 52.878906 46.175781 C 54.5 46.1875 54.5 46.1875 54.71875 46.40625 C 54.738281 46.707031 54.742188 47.011719 54.742188 47.316406 C 54.742188 47.507812 54.742188 47.703125 54.742188 47.902344 C 54.742188 48.113281 54.742188 48.324219 54.738281 48.539062 C 54.738281 48.753906 54.738281 48.96875 54.738281 49.191406 C 54.738281 49.878906 54.734375 50.566406 54.734375 51.253906 C 54.730469 51.71875 54.730469 52.183594 54.730469 52.648438 C 54.726562 53.789062 54.726562 54.933594 54.71875 56.074219 C 53.945312 56.460938 52.960938 56.304688 52.109375 56.304688 C 51.800781 56.308594 51.800781 56.308594 51.484375 56.3125 C 51.285156 56.3125 51.085938 56.3125 50.882812 56.3125 C 50.609375 56.3125 50.609375 56.3125 50.332031 56.316406 C 49.886719 56.265625 49.886719 56.265625 49.5 55.882812 C 49.449219 55.484375 49.449219 55.484375 49.449219 54.992188 C 49.449219 54.804688 49.449219 54.621094 49.445312 54.433594 C 49.445312 54.230469 49.449219 54.03125 49.449219 53.828125 C 49.449219 53.621094 49.449219 53.417969 49.449219 53.207031 C 49.445312 52.773438 49.449219 52.339844 49.449219 51.90625 C 49.453125 51.242188 49.449219 50.578125 49.445312 49.914062 C 49.449219 49.492188 49.449219 49.074219 49.449219 48.652344 C 49.449219 48.355469 49.449219 48.355469 49.445312 48.046875 C 49.449219 47.863281 49.449219 47.679688 49.449219 47.488281 C 49.449219 47.328125 49.449219 47.164062 49.449219 46.996094 C 49.527344 46.378906 49.75 46.226562 50.351562 46.164062 Z M 50.351562 46.164062 "/>
<path style=" stroke:none;fill-rule:nonzero;fill:rgb(47.843137%,0.784314%,3.137255%);fill-opacity:1;" d="M 34.609375 19.140625 C 35.519531 19.289062 35.902344 19.558594 36.570312 20.207031 C 36.757812 20.382812 36.945312 20.558594 37.132812 20.738281 C 37.226562 20.828125 37.320312 20.914062 37.417969 21.007812 C 37.859375 21.410156 38.316406 21.78125 38.78125 22.152344 C 39.507812 22.742188 40.226562 23.335938 40.933594 23.953125 C 41.09375 24.089844 41.253906 24.230469 41.417969 24.375 C 41.765625 24.75 41.765625 24.75 41.765625 25.328125 C 40.839844 25.34375 39.914062 25.355469 38.988281 25.363281 C 38.671875 25.363281 38.359375 25.367188 38.042969 25.375 C 37.589844 25.382812 37.140625 25.382812 36.6875 25.386719 C 36.476562 25.390625 36.476562 25.390625 36.257812 25.394531 C 35.714844 25.394531 35.292969 25.386719 34.8125 25.117188 C 34.507812 24.5625 34.546875 24.09375 34.554688 23.464844 C 34.558594 23.089844 34.558594 23.089844 34.558594 22.707031 C 34.566406 22.441406 34.570312 22.175781 34.574219 21.910156 C 34.578125 21.640625 34.582031 21.375 34.582031 21.109375 C 34.589844 20.453125 34.597656 19.796875 34.609375 19.140625 Z M 34.609375 19.140625 "/>
</g>
</svg>
