<svg width="109" height="99" viewBox="0 0 109 99" fill="none" xmlns="http://www.w3.org/2000/svg">
<path d="M11.6664 0.00735745C12.0519 0.00657924 12.4374 0.00550741 12.823 0.00416956C13.8762 0.00136744 14.9293 0.00273992 15.9826 0.00483463C17.1208 0.00636509 18.2591 0.004003 19.3973 0.00215071C21.6247 -0.000843567 23.8521 -0.000202185 26.0795 0.00175461C27.8902 0.00327931 29.7009 0.00348339 31.5116 0.0027501C31.7696 0.00264676 32.0276 0.00254343 32.2934 0.00243696C32.8175 0.00222135 33.3417 0.00200271 33.8658 0.00178108C38.7774 -0.000140624 43.6889 0.00206712 48.6005 0.00569265C52.8123 0.00870543 57.0241 0.00818207 61.2359 0.00507307C66.1303 0.00146194 71.0246 4.45861e-05 75.9189 0.00211413C76.4411 0.00232894 76.9633 0.00254094 77.4854 0.0027501C77.8708 0.00290616 77.8708 0.00290616 78.2639 0.00306537C80.0719 0.00364695 81.8798 0.00266628 83.6878 0.00107797C85.8919 -0.000815855 88.096 -0.000296373 90.3001 0.0032904C91.4241 0.00505933 92.548 0.00576243 93.672 0.003527C94.702 0.00150948 95.7319 0.00263509 96.7619 0.00620932C97.1334 0.00695919 97.5049 0.00658713 97.8764 0.00494435C101.124 -0.00831075 104.053 0.296197 106.595 2.50859C108.412 4.38577 109.022 6.69672 108.992 9.24081C108.994 9.49105 108.995 9.74129 108.997 9.99911C109.001 10.83 108.997 11.6607 108.993 12.4915C108.994 13.0903 108.996 13.6891 108.998 14.2878C109.002 15.7407 109 17.1935 108.996 18.6463C108.993 19.8277 108.992 21.0091 108.993 22.1905C108.993 22.3592 108.993 22.5278 108.993 22.7015C108.993 23.0441 108.993 23.3867 108.994 23.7293C108.996 26.7537 108.992 29.7781 108.985 32.8024C108.979 35.7327 108.977 38.6629 108.98 41.5931C108.984 44.7894 108.985 47.9858 108.981 51.1821C108.981 51.5233 108.98 51.8645 108.98 52.2058C108.98 52.3736 108.98 52.5415 108.979 52.7144C108.978 53.8936 108.979 55.0728 108.98 56.252C108.982 57.6902 108.981 59.1283 108.975 60.5665C108.972 61.2994 108.971 62.0321 108.973 62.765C108.975 63.5614 108.972 64.3576 108.967 65.154C108.968 65.3828 108.97 65.6117 108.972 65.8475C108.944 68.3341 108.183 70.2068 106.452 71.9894C105.727 72.6498 105.005 73.1842 104.114 73.5989C103.869 73.7134 103.623 73.8279 103.37 73.9458C102.039 74.4357 100.692 74.3619 99.2898 74.3498C98.9874 74.3496 98.6849 74.3497 98.3825 74.3501C97.5662 74.3503 96.75 74.3463 95.9338 74.3416C95.079 74.3374 94.2241 74.337 93.3693 74.3362C91.7528 74.3341 90.1362 74.3286 88.5196 74.3218C86.6783 74.3143 84.837 74.3106 82.9957 74.3072C79.21 74.3001 75.4243 74.2878 71.6386 74.2732C71.6386 78.5757 71.6386 82.8782 71.6386 87.311C72.6029 87.3032 73.5672 87.2953 74.5607 87.2873C75.3359 87.2829 76.1112 87.2793 76.8864 87.2761C77.7012 87.2726 78.516 87.2678 79.3309 87.2601C80.1176 87.2527 80.9043 87.2487 81.691 87.247C82.1331 87.2452 82.5751 87.2399 83.0171 87.2346C85.6041 87.2341 87.902 87.5963 89.9062 89.3341C92.6002 92.3188 91.4849 93.9671 91.4849 99C67.0739 99 42.6629 99 17.5122 99C17.5122 91.1 17.5122 91.1 18.8178 89.5202C20.7403 87.8731 22.7748 87.2833 25.284 87.2811C25.4439 87.2809 25.6037 87.2807 25.7684 87.2805C26.1054 87.2803 26.4424 87.2807 26.7795 87.2817C27.2912 87.2829 27.8028 87.2817 28.3145 87.2803C28.6434 87.2804 28.9723 87.2807 29.3012 87.2811C29.5976 87.2814 29.8939 87.2816 30.1992 87.2819C31.0235 87.3103 31.8079 87.4116 32.6224 87.5358C38.8163 87.9543 44.6913 86.2785 49.4122 82.1867C53.3948 78.6226 56.4959 73.3697 56.7932 67.9325C56.8679 65.3021 56.7674 62.7335 56.5283 60.1116C71.413 60.1116 86.2978 60.1116 101.634 60.1116C101.559 42.8276 101.485 25.5436 101.408 7.73581C100.753 7.40931 100.184 7.48282 99.4517 7.48273C99.2158 7.48224 99.2158 7.48224 98.9751 7.48174C98.4428 7.48091 97.9106 7.4817 97.3783 7.48247C96.995 7.48221 96.6117 7.48186 96.2283 7.48141C95.1708 7.48047 94.1133 7.48094 93.0558 7.48163C91.9169 7.48214 90.7781 7.48136 89.6392 7.48074C87.4065 7.47973 85.1739 7.47995 82.9412 7.4806C81.1274 7.48111 79.3136 7.48118 77.4998 7.48094C77.2421 7.4809 76.9844 7.48087 76.7189 7.48083C76.1955 7.48076 75.6721 7.48069 75.1487 7.48061C70.2353 7.47997 65.3219 7.48071 60.4084 7.48192C56.1882 7.48292 51.968 7.48275 47.7477 7.48171C42.8524 7.48051 37.9571 7.48003 33.0619 7.48072C32.5403 7.4808 32.0188 7.48087 31.4973 7.48094C31.1123 7.48099 31.1123 7.48099 30.7196 7.48104C28.907 7.48124 27.0944 7.48091 25.2818 7.48038C23.0743 7.47975 20.8667 7.47992 18.6592 7.48112C17.5319 7.48171 16.4046 7.48194 15.2772 7.48119C14.2467 7.48053 13.2162 7.48089 12.1857 7.48209C11.8115 7.48234 11.4372 7.48221 11.063 7.48167C10.5571 7.48099 10.0513 7.48168 9.5454 7.48273C9.26356 7.48277 8.98171 7.4828 8.69133 7.48284C8.05325 7.46622 8.05325 7.46622 7.58899 7.73581C7.51456 25.0198 7.44014 42.3038 7.36346 60.1116C9.29848 60.1116 11.2335 60.1116 13.2272 60.1116C13.1527 60.6262 13.0783 61.1408 13.0016 61.671C12.426 66.1105 12.9944 70.0165 14.3548 74.2732C13.3041 74.2957 12.2535 74.3119 11.2026 74.3226C10.8461 74.3271 10.4896 74.3332 10.1331 74.3411C6.9816 74.4086 4.68867 73.9769 2.27502 71.7725C0.927688 70.3938 0.121207 68.6204 0.115708 66.6964C0.114564 66.4833 0.113419 66.2702 0.112239 66.0506C0.112127 65.8172 0.112015 65.5837 0.1119 65.3432C0.110911 65.0947 0.109923 64.8461 0.108905 64.59C0.105884 63.7542 0.104492 62.9183 0.103111 62.0824C0.101329 61.4843 0.099465 60.8861 0.097522 60.288C0.0919949 58.4907 0.0886929 56.6934 0.0857812 54.8961C0.0849438 54.3882 0.0840476 53.8803 0.0831306 53.3724C0.0774382 50.2164 0.0724655 47.0603 0.0696598 43.9043C0.0689991 43.1735 0.0683316 42.4426 0.0676518 41.7118C0.0674836 41.5302 0.067315 41.3485 0.0671416 41.1614C0.0642899 38.2212 0.0568001 35.281 0.0473991 32.3408C0.0378199 29.32 0.0325158 26.2992 0.0313387 23.2784C0.0305701 21.5833 0.027935 19.8881 0.0204901 18.1929C0.0141578 16.7487 0.0117021 15.3046 0.0142193 13.8603C0.0153847 13.1243 0.0141448 12.3883 0.0091529 11.6522C0.00402175 10.8519 0.00591281 10.0518 0.00948756 9.2514C0.00479139 8.90725 0.00479104 8.90725 0 8.55615C0.0249111 6.28054 0.80142 4.16225 2.40188 2.50859C5.10678 0.154809 8.24112 -0.00778953 11.6664 0.00735745Z" fill="#484848"/>
<path d="M46.5073 50.6634C50.2337 53.7635 52.9748 57.918 53.5964 62.809C54.0505 68.5698 52.8581 73.607 49.0859 78.0947C45.8924 81.6821 41.3005 84.1158 36.4569 84.4167C31.501 84.602 26.9007 83.4196 22.9248 80.3425C22.2352 80.652 21.7353 81.0111 21.1849 81.5262C20.9527 81.7431 20.9527 81.7431 20.7158 81.9643C20.5563 82.1153 20.3969 82.2663 20.2326 82.4218C20.074 82.5693 19.9154 82.7168 19.752 82.8688C18.8615 83.7057 18.0475 84.5569 17.2866 85.5127C17.4355 85.7352 17.5843 85.9578 17.7377 86.187C17.7542 87.2267 17.5373 87.8201 16.8527 88.5745C16.5636 88.864 16.2707 89.1498 15.9749 89.4324C15.8193 89.5861 15.6637 89.7398 15.5034 89.8982C15.0062 90.3878 14.5044 90.8724 14.0024 91.3572C13.6707 91.6829 13.3393 92.009 13.0082 92.3354C11.6615 93.657 10.311 94.9595 8.87855 96.1892C8.39777 96.6087 7.94882 97.0534 7.50442 97.5108C6.88445 98.1484 6.53503 98.4936 5.64382 98.6628C4.47956 98.4909 3.8937 97.7834 3.07845 96.9769C2.92118 96.8259 2.7639 96.675 2.60185 96.5194C2.15082 96.08 1.71171 95.6314 1.27424 95.1786C1.15418 95.063 1.03411 94.9473 0.910404 94.8282C0.334272 94.2313 0.0644159 93.7445 0.005654 92.9307C0.0778387 91.9329 0.553112 91.343 1.27424 90.6828C1.52702 90.4666 1.78084 90.2516 2.03539 90.0374C3.43017 88.8266 4.71092 87.4975 6.0103 86.187C9.03501 83.1364 9.03501 83.1364 10.4107 81.9766C10.7753 81.6743 10.7753 81.6743 11.1974 81.2417C12.829 81.163 12.829 81.163 13.4054 81.4258C13.9598 81.5275 13.9598 81.5275 14.4823 81.0174C14.7 80.8003 14.9145 80.5801 15.1265 80.3575C15.2404 80.2424 15.3542 80.1273 15.4715 80.0088C15.835 79.6402 16.1943 79.2679 16.5537 78.8955C16.7992 78.6451 17.045 78.395 17.291 78.1451C17.894 77.5317 18.4933 76.915 19.0908 76.2963C18.9616 76.0676 18.8323 75.8388 18.6992 75.6031C15.9915 70.7872 15.2451 65.7076 16.6101 60.3363C18.1643 55.3978 21.2934 51.3341 25.8953 48.8531C32.6315 45.4916 40.4717 46.1997 46.5073 50.6634ZM25.6311 58.0885C23.4195 61.0399 22.8728 64.1653 23.1503 67.7544C23.7072 70.6499 25.4357 73.3363 27.8018 75.0881C30.7042 77.0152 33.7211 77.7174 37.155 77.1551C40.378 76.4798 42.8555 74.6459 44.8009 72.0254C46.4798 69.0826 47.095 66.1052 46.3373 62.7669C45.6538 60.3776 44.5253 58.719 42.7711 56.9645C42.6461 56.8347 42.5211 56.7049 42.3923 56.5711C40.2251 54.5077 37.1474 53.6994 34.2249 53.7622C30.8093 54.0319 27.9256 55.5828 25.6311 58.0885Z" fill="#484848"/>
<path d="M16.4866 14.1987C16.6579 14.2004 16.8292 14.202 17.0057 14.2036C17.1862 14.2036 17.3666 14.2035 17.5525 14.2034C18.1505 14.2038 18.7484 14.2073 19.3463 14.2108C19.7603 14.2116 20.1743 14.2122 20.5883 14.2127C21.6791 14.2144 22.7698 14.2188 23.8606 14.2238C24.9732 14.2284 26.0858 14.2305 27.1984 14.2327C29.3823 14.2375 31.5662 14.2452 33.7501 14.2547C33.7534 14.4495 33.7567 14.6444 33.76 14.8452C33.7739 15.5759 33.7906 16.3065 33.8093 17.0371C33.8167 17.3519 33.8231 17.6667 33.8282 17.9815C33.8576 20.8853 33.8576 20.8853 35.1455 23.4289C38.0273 25.6629 42.1626 24.7253 45.4775 24.8197C45.4775 31.7927 45.4775 38.7656 45.4775 45.9499C44.5674 45.7684 43.9959 45.5844 43.1799 45.2053C37.728 42.9367 31.7764 43.1364 26.3218 45.2474C24.1273 46.1482 22.271 47.3761 20.444 48.8721C20.296 48.9866 20.1481 49.101 19.9956 49.219C18.5114 50.4197 17.0193 52.1024 16.159 53.8175C15.0596 53.6208 15.0596 53.6208 14.8058 53.3679C14.783 52.871 14.7763 52.3735 14.7757 51.8761C14.7752 51.7183 14.7747 51.5606 14.7741 51.398C14.7727 50.8654 14.7729 50.3329 14.7731 49.8003C14.7724 49.4201 14.7716 49.0399 14.7708 48.6596C14.7688 47.624 14.7683 46.5883 14.7681 45.5526C14.7679 44.6895 14.7671 43.8264 14.7663 42.9632C14.7644 40.9277 14.7639 38.8922 14.7641 36.8567C14.7642 34.7536 14.7618 32.6504 14.7582 30.5473C14.7553 28.7446 14.7541 26.9419 14.7542 25.1392C14.7543 24.0612 14.7536 22.9832 14.7513 21.9053C14.7491 20.8918 14.7491 19.8783 14.7507 18.8649C14.7509 18.4921 14.7504 18.1192 14.749 17.7464C14.7473 17.2391 14.7483 16.7319 14.7501 16.2246C14.7499 15.798 14.7499 15.798 14.7497 15.3628C14.8514 14.1696 15.4193 14.203 16.4866 14.1987ZM18.1887 25.4941C17.7587 26.0657 17.7364 26.3609 17.7659 27.0817C17.9995 27.8634 18.1731 28.0092 18.8653 28.4164C19.4313 28.5192 19.4313 28.5192 20.0507 28.5072C20.287 28.51 20.5233 28.5129 20.7668 28.5158C21.0208 28.5152 21.2747 28.5145 21.5364 28.5138C21.7983 28.515 22.0602 28.5162 22.33 28.5174C22.8836 28.5188 23.4371 28.5185 23.9907 28.5166C24.8386 28.5147 25.6862 28.5212 26.5341 28.5283C27.0718 28.5287 27.6095 28.5285 28.1472 28.5279C28.4011 28.5304 28.6551 28.5329 28.9168 28.5355C29.2712 28.5324 29.2712 28.5324 29.6329 28.5291C29.8405 28.5291 30.0481 28.5291 30.262 28.529C30.9877 28.382 31.2548 28.0776 31.7203 27.5172C31.9631 27.0927 31.9631 27.0927 31.9459 26.6181C31.5758 25.8435 31.3177 25.5263 30.5927 25.0445C30.0662 24.9764 30.0662 24.9764 29.4744 24.9864C29.2471 24.9849 29.0198 24.9835 28.7856 24.9821C28.5403 24.983 28.295 24.9839 28.0423 24.9848C27.7901 24.9844 27.5379 24.984 27.2781 24.9835C26.7444 24.9832 26.2108 24.984 25.6771 24.9859C24.8599 24.9883 24.0428 24.9859 23.2257 24.9831C22.7075 24.9834 22.1893 24.9839 21.6712 24.9848C21.4264 24.9839 21.1816 24.983 20.9293 24.9821C20.7013 24.9835 20.4733 24.9849 20.2384 24.9864C20.0381 24.9867 19.8378 24.9871 19.6314 24.9874C19.0476 25.0491 18.6856 25.1872 18.1887 25.4941ZM17.9914 32.4064C17.6368 33.1132 17.7401 33.5142 17.9632 34.2609C18.3956 34.829 18.6206 34.9289 19.3164 35.16C19.8463 35.1837 20.3769 35.1934 20.9073 35.1962C21.1489 35.1979 21.1489 35.1979 21.3954 35.1996C21.9281 35.2029 22.4608 35.2044 22.9935 35.2057C23.364 35.207 23.7345 35.2083 24.105 35.2096C24.8819 35.2119 25.6589 35.2132 26.4358 35.214C27.4305 35.2153 28.4252 35.2207 29.4199 35.2271C30.1853 35.2312 30.9506 35.2324 31.7161 35.2328C32.0827 35.2334 32.4494 35.2352 32.8161 35.2382C33.3295 35.242 33.8427 35.2416 34.3561 35.2401C34.794 35.2414 34.794 35.2414 35.2407 35.2426C36.0648 35.1536 36.4803 34.9854 37.133 34.4857C37.6552 33.8524 37.6552 33.8524 37.5418 33.1369C37.3544 32.4474 37.2587 32.1927 36.6819 31.7882C35.8627 31.5117 35.0638 31.5333 34.2047 31.5307C34.048 31.53 33.8913 31.5292 33.7299 31.5285C33.213 31.5263 32.6962 31.5259 32.1793 31.5256C31.8193 31.5249 31.4592 31.5242 31.0991 31.5234C30.3448 31.522 29.5905 31.5216 28.8361 31.5217C27.8705 31.5218 26.9049 31.5187 25.9393 31.5148C25.1957 31.5123 24.4522 31.5119 23.7087 31.512C23.3527 31.5117 22.9967 31.5107 22.6408 31.509C22.1425 31.5068 21.6444 31.5074 21.1462 31.5088C20.863 31.5085 20.5797 31.5082 20.2879 31.5078C19.3408 31.5784 18.6894 31.757 17.9914 32.4064ZM17.7377 39.431C17.5685 40.0028 17.5685 40.0028 17.7377 40.5549C18.1595 41.0594 18.502 41.3854 19.0908 41.6789C19.6285 41.7032 20.1597 41.7142 20.6976 41.7151C20.9457 41.7168 20.9457 41.7168 21.1989 41.7185C21.7475 41.7218 22.296 41.7233 22.8446 41.7246C23.2256 41.7258 23.6065 41.7271 23.9874 41.7284C24.7869 41.7308 25.5864 41.7321 26.3859 41.7329C27.4098 41.7341 28.4335 41.7395 29.4573 41.7459C30.2445 41.7501 31.0318 41.7513 31.819 41.7516C32.1964 41.7523 32.5738 41.7541 32.9512 41.7571C33.4797 41.7609 34.0081 41.7605 34.5366 41.759C34.7699 41.7621 34.7699 41.7621 35.0079 41.7653C35.9754 41.7569 36.5992 41.6129 37.3585 41.0045C37.66 40.2501 37.66 40.2501 37.584 39.431C36.9864 38.6427 36.6461 38.3411 35.6606 38.1643C35.3509 38.1577 35.0411 38.1572 34.7315 38.1616C34.5615 38.1597 34.3916 38.1577 34.2165 38.1557C33.6569 38.1507 33.0976 38.154 32.5379 38.1578C32.1478 38.157 31.7577 38.1559 31.3676 38.1545C30.5509 38.1529 29.7343 38.1553 28.9176 38.1605C27.8717 38.1669 26.8261 38.1632 25.7803 38.1565C24.975 38.1525 24.1698 38.1537 23.3646 38.1567C22.979 38.1574 22.5934 38.1565 22.2079 38.1539C21.6685 38.151 21.1296 38.1554 20.5902 38.1616C20.4316 38.1594 20.2729 38.1571 20.1094 38.1547C18.9435 38.1797 18.4484 38.5288 17.7377 39.431Z" fill="#484848"/>
<path d="M92.8222 10.9127C94.2192 11.7018 95.0316 12.4966 95.5444 14.0299C95.6936 15.7024 95.8085 17.2279 94.7524 18.6126C93.8476 19.5902 93.0273 20.2036 91.7104 20.5488C91.2416 20.5316 90.7731 20.4995 90.3062 20.4539C89.0945 20.4368 88.4844 20.6183 87.547 21.3882C87.1699 21.7564 86.8005 22.1325 86.4388 22.5157C86.2457 22.6968 86.0527 22.8779 85.8538 23.0645C84.8072 24.1283 84.8072 24.1283 84.4317 25.5281C84.4869 26.2388 84.4869 26.2388 84.6234 26.9039C84.8117 28.1108 84.3693 29.0505 83.7086 30.0408C82.7111 31.2922 81.7451 31.8801 80.1575 32.0744C78.5071 32.1479 77.1975 31.7453 75.9659 30.6361C75.0049 29.6039 74.6136 28.4457 74.5281 27.0536C74.5491 26.838 74.5491 26.838 74.5704 26.6181C74.3657 26.5531 74.1611 26.4882 73.9502 26.4214C73.2173 26.1685 73.2173 26.1685 72.738 25.9015C72.1915 25.6655 71.9752 25.7718 71.413 25.9437C71.1348 26.0583 70.8576 26.1755 70.5814 26.2949C69.3601 26.7596 68.1718 26.7724 66.9113 26.4442C66.2063 26.3217 66.2063 26.3217 65.648 26.7743C65.4666 26.9546 65.2852 27.1348 65.0983 27.3205C64.4709 27.9364 63.8953 28.4804 63.1531 28.9502C62.5189 29.6489 62.5588 29.8015 62.5893 30.7064C62.6006 30.9214 62.612 31.1364 62.6237 31.3579C62.6118 32.6169 62.1752 33.7363 61.3436 34.685C59.9422 35.9446 58.6661 36.1654 56.8049 36.1277C55.3534 35.991 54.4537 35.4556 53.5119 34.3592C52.6943 33.1635 52.3885 31.8189 52.5128 30.3789C52.8664 28.7032 53.8098 27.5979 55.1751 26.6181C56.4344 26.0323 57.8691 25.956 59.1958 26.3652C60.1418 26.4023 60.4431 26.0843 61.1304 25.4761C61.3363 25.2833 61.3363 25.2833 61.5462 25.0867C61.687 24.9608 61.8277 24.8349 61.9726 24.7052C62.5009 24.2302 63.0165 23.7477 63.5196 23.2462C63.5487 22.7655 63.5487 22.7655 63.5055 22.2206C63.4786 20.6734 63.8353 19.5199 64.6895 18.2306C65.9052 17.0728 66.9008 16.6736 68.594 16.615C70.1158 16.6711 71.1489 16.9348 72.25 17.9997C72.9854 18.8704 73.2769 19.5877 73.4851 20.7033C73.6707 21.4917 73.7918 21.8128 74.4224 22.3365C75.5699 22.9495 75.5699 22.9495 76.8195 22.8862C77.1023 22.714 77.3801 22.5334 77.6538 22.3471C78.3969 22.0289 78.9619 22.1987 79.7575 22.3049C81.0514 22.358 81.6006 22.1836 82.559 21.3065C83.4896 20.3553 84.3506 19.3483 85.1702 18.3009C85.2984 18.1416 85.4267 17.9823 85.5589 17.8181C85.8995 17.4298 85.8995 17.4298 85.7763 17.0083C85.7251 16.8414 85.6739 16.6745 85.6212 16.5026C85.4902 14.9876 85.7611 13.7848 86.5233 12.4564C88.1189 10.6249 90.5225 10.0264 92.8222 10.9127ZM89.7089 14.7464C89.4004 15.1557 89.4004 15.1557 89.4834 15.7299C89.6455 16.3511 89.6455 16.3511 90.3573 16.7274C90.9541 16.6572 90.9541 16.6572 91.4849 16.5026C91.6375 15.7376 91.6375 15.7376 91.7104 14.929C91.2995 14.4278 91.2995 14.4278 90.7097 14.4092C90.1309 14.4378 90.1309 14.4378 89.7089 14.7464ZM67.5932 21.0545C67.2983 21.6454 67.2983 21.6454 67.4663 22.1785C67.7878 22.6116 67.7878 22.6116 68.3402 22.7966C68.97 22.8598 68.97 22.8598 69.4538 22.3611C69.5794 22.2081 69.705 22.0551 69.8344 21.8975C69.589 21.167 69.589 21.167 69.1578 20.5488C68.3556 20.4225 68.1359 20.4263 67.5932 21.0545ZM78.644 26.323C78.344 26.8422 78.344 26.8422 78.5171 27.447C78.8121 28.0118 78.8121 28.0118 79.4051 28.1775C80.0384 28.2481 80.0384 28.2481 80.6596 27.742C80.7536 27.0676 80.7536 27.0676 80.6596 26.3933C80.2481 25.8945 80.2481 25.8945 79.6589 25.8594C79.0588 25.8939 79.0588 25.8939 78.644 26.323ZM56.7961 30.2428C56.4437 30.7974 56.4453 31.143 56.5283 31.7882C56.9398 32.287 56.9398 32.287 57.5291 32.3221C58.1291 32.2876 58.1291 32.2876 58.5439 31.8584C58.8439 31.3393 58.8439 31.3393 58.6708 30.7345C58.3745 30.1711 58.3745 30.1711 57.7828 29.9899C57.2065 29.9393 57.2065 29.9393 56.7961 30.2428Z" fill="#484848"/>
<path d="M90.5687 25.6767C90.8221 25.674 91.0754 25.6712 91.3365 25.6684C91.6991 25.6678 91.6991 25.6678 92.069 25.6671C92.4034 25.6657 92.4034 25.6657 92.7446 25.6643C93.2891 25.7189 93.2891 25.7189 93.7402 26.1685C93.7976 26.6684 93.7976 26.6684 93.799 27.3033C93.8006 27.5435 93.8022 27.7837 93.8038 28.0311C93.8033 28.2957 93.8027 28.5604 93.8021 28.833C93.8039 29.2497 93.8038 29.2497 93.8056 29.6748C93.8082 30.4379 93.8088 31.2009 93.8082 31.964C93.808 32.6003 93.8091 33.2366 93.8101 33.8729C93.8126 35.3735 93.8127 36.8741 93.8114 38.3748C93.81 39.9247 93.8128 41.4745 93.8176 43.0244C93.8216 44.3537 93.8229 45.6829 93.8222 47.0122C93.8218 47.8068 93.8224 48.6013 93.8255 49.3958C93.8288 50.2813 93.8268 51.1667 93.8242 52.0521C93.8267 52.449 93.8267 52.449 93.8294 52.854C93.8278 53.0942 93.8262 53.3343 93.8246 53.5818C93.8246 53.7913 93.8247 54.0008 93.8247 54.2167C93.7829 54.4642 93.7829 54.4642 93.7402 54.7166C93.0011 55.2077 92.7842 55.2219 91.928 55.218C91.7084 55.2176 91.4888 55.2171 91.2625 55.2167C91.0335 55.2139 90.8046 55.2112 90.5687 55.2084C90.3389 55.2082 90.1091 55.2081 89.8723 55.2079C88.1653 55.1978 88.1653 55.1978 87.651 54.9414C87.6457 51.1645 87.6417 47.3875 87.6393 43.6106C87.6381 41.857 87.6365 40.1034 87.6339 38.3498C87.6317 36.8219 87.6302 35.2941 87.6297 33.7662C87.6294 32.9567 87.6287 32.1472 87.6271 31.3377C87.6253 30.4355 87.6253 29.5333 87.6254 28.6311C87.6245 28.3608 87.6237 28.0904 87.6229 27.8119C87.6232 27.5676 87.6235 27.3233 87.6238 27.0716C87.6236 26.858 87.6234 26.6443 87.6232 26.4242C87.6948 25.1838 89.6305 25.6773 90.5687 25.6767Z" fill="#484848"/>
<path d="M67.0223 33.5566C67.275 33.5564 67.5276 33.5561 67.7879 33.5558C68.0539 33.5566 68.3199 33.5575 68.594 33.5584C68.993 33.5571 68.993 33.5571 69.4 33.5558C69.779 33.5562 69.779 33.5562 70.1656 33.5566C70.3992 33.5569 70.6328 33.5572 70.8735 33.5574C71.413 33.5865 71.413 33.5865 71.6386 33.8113C71.6625 34.4588 71.6717 35.101 71.6713 35.7487C71.6721 35.9519 71.6728 36.1551 71.6736 36.3645C71.6758 37.0398 71.6762 37.7152 71.6765 38.3905C71.6772 38.8578 71.6779 39.3251 71.6787 39.7924C71.6801 40.7734 71.6805 41.7543 71.6804 42.7353C71.6803 43.9949 71.6834 45.2546 71.6873 46.5142C71.6898 47.4797 71.6903 48.4452 71.6901 49.4108C71.6904 49.8753 71.6914 50.3399 71.6931 50.8044C71.6953 51.453 71.6947 52.1015 71.6934 52.7501C71.6946 52.9436 71.6959 53.1371 71.6972 53.3365C71.6901 54.6653 71.6901 54.6653 71.1875 55.1662C70.6673 55.2244 70.6673 55.2244 70.0246 55.2259C69.6788 55.2268 69.6788 55.2268 69.326 55.2277C69.0844 55.2259 68.8429 55.2242 68.594 55.2224C68.2316 55.225 68.2316 55.225 67.8619 55.2277C67.6313 55.2271 67.4008 55.2265 67.1633 55.2259C66.9512 55.2254 66.7391 55.2249 66.5206 55.2244C66.0004 55.1662 66.0004 55.1662 65.5493 54.7166C65.5057 54.0541 65.4902 53.4128 65.4946 52.7501C65.4941 52.5465 65.4937 52.3429 65.4933 52.1331C65.4924 51.4579 65.4948 50.7828 65.4974 50.1076C65.4976 49.6401 65.4977 49.1725 65.4977 48.705C65.498 47.7245 65.4999 46.7439 65.5029 45.7633C65.5068 44.5034 65.5076 43.2435 65.5075 41.9836C65.5075 41.0181 65.5088 40.0526 65.5104 39.0871C65.5111 38.6223 65.5116 38.1576 65.5117 37.6929C65.5122 37.0448 65.5142 36.3968 65.5166 35.7487C65.5165 35.5548 65.5164 35.3608 65.5163 35.1609C65.5245 33.658 65.5279 33.5583 67.0223 33.5566Z" fill="#484848"/>
<path d="M78.0731 37.6028C78.3258 37.6026 78.5784 37.6023 78.8387 37.602C79.1047 37.6028 79.3707 37.6037 79.6448 37.6046C80.0438 37.6033 80.0438 37.6033 80.4508 37.602C80.8298 37.6024 80.8298 37.6024 81.2164 37.6028C81.45 37.6031 81.6836 37.6033 81.9243 37.6036C82.4639 37.6327 82.4639 37.6327 82.6894 37.8575C82.7144 38.3816 82.7249 38.8991 82.7257 39.4235C82.7268 39.5872 82.728 39.751 82.7291 39.9197C82.7324 40.4637 82.7339 41.0076 82.7352 41.5516C82.7365 41.9282 82.7378 42.3047 82.7391 42.6813C82.7415 43.4718 82.7428 44.2623 82.7436 45.0527C82.7448 46.0675 82.7502 47.0822 82.7566 48.0969C82.7608 48.875 82.762 49.653 82.7623 50.4312C82.763 50.8054 82.7648 51.1795 82.7678 51.5537C82.7716 52.0764 82.7712 52.5989 82.7698 53.1215C82.7718 53.2772 82.7739 53.4329 82.7761 53.5933C82.7723 54.024 82.7723 54.024 82.6894 54.7166C81.9528 55.2061 81.731 55.2238 80.8772 55.2259C80.6576 55.2265 80.438 55.2271 80.2117 55.2277C79.9827 55.2259 79.7538 55.2242 79.5179 55.2224C79.2881 55.2241 79.0583 55.2259 78.8215 55.2277C78.6022 55.2271 78.3828 55.2265 78.1568 55.2259C77.9556 55.2254 77.7544 55.2249 77.5471 55.2244C77.0512 55.1662 77.0512 55.1662 76.6002 54.7166C76.5567 54.1763 76.541 53.662 76.5454 53.1215C76.5449 52.9574 76.5445 52.7933 76.5441 52.6241C76.5432 52.0803 76.5457 51.5365 76.5482 50.9927C76.5484 50.6159 76.5485 50.2391 76.5485 49.8623C76.5488 49.0722 76.5507 48.2821 76.5537 47.4921C76.5576 46.4771 76.5584 45.4621 76.5583 44.4471C76.5583 43.669 76.5596 42.891 76.5612 42.1129C76.5619 41.7385 76.5624 41.3641 76.5625 40.9898C76.563 40.4677 76.565 39.9456 76.5674 39.4235C76.5673 39.2674 76.5672 39.1112 76.5671 38.9504C76.5764 37.5847 76.7381 37.6043 78.0731 37.6028Z" fill="#484848"/>
<path d="M41.1925 60.1116C42.0175 60.6889 42.28 61.0158 42.4611 62.0082C42.1965 63.5111 41.0507 64.3101 39.938 65.2554C39.2522 65.8491 38.5877 66.4638 37.9223 67.08C36.9665 67.963 36.0098 68.8431 35.0196 69.6879C34.6979 69.9632 34.3852 70.2489 34.0743 70.5361C33.3377 71.0256 32.83 71.1262 31.9459 71.1262C30.8449 70.4971 29.9658 69.6913 29.0704 68.8081C28.9405 68.6859 28.8105 68.5638 28.6766 68.438C27.8298 67.6047 27.4082 66.9379 27.2098 65.7313C27.4606 64.9952 27.6772 64.5538 28.2811 64.0594C29.1096 63.853 29.5382 63.9004 30.3672 64.1578C31.1039 64.7798 31.7551 65.4628 32.3969 66.1808C33.1065 65.8658 33.6035 65.4912 34.1624 64.9559C34.3243 64.8022 34.4862 64.6485 34.6531 64.4901C34.8202 64.3294 34.9874 64.1688 35.1596 64.0032C39.4532 59.9023 39.4532 59.9023 41.1925 60.1116Z" fill="#484848"/>
<path d="M55.4941 45.6705C55.8285 45.6719 55.8285 45.6719 56.1697 45.6733C56.4115 45.6737 56.6532 45.6741 56.9022 45.6746C57.1556 45.6773 57.409 45.6801 57.67 45.6829C58.0514 45.6832 58.0514 45.6832 58.4404 45.6834C60.3306 45.6936 60.3306 45.6936 60.5878 45.9499C60.6088 46.3018 60.6143 46.6546 60.6134 47.0071C60.6133 47.2321 60.6133 47.4571 60.6133 47.689C60.6121 47.9337 60.611 48.1783 60.6098 48.4305C60.6095 48.6796 60.6091 48.9288 60.6088 49.1855C60.6075 49.9849 60.6047 50.7842 60.6019 51.5836C60.6007 52.1241 60.5997 52.6646 60.5988 53.205C60.5963 54.5331 60.5925 55.8612 60.5878 57.1893C59.685 57.6392 58.5357 57.4557 57.5431 57.4562C57.1808 57.4604 57.1808 57.4604 56.8111 57.4646C56.5805 57.465 56.35 57.4655 56.1125 57.4659C55.7943 57.4673 55.7943 57.4673 55.4698 57.4687C54.9496 57.4141 54.9496 57.4141 54.4985 56.9645C54.4413 56.5039 54.4413 56.5039 54.4402 55.9301C54.4388 55.7156 54.4373 55.5011 54.4359 55.28C54.4368 55.0477 54.4377 54.8155 54.4386 54.5761C54.4382 54.3384 54.4378 54.1006 54.4373 53.8556C54.437 53.3522 54.4379 52.8488 54.4397 52.3454C54.4421 51.5728 54.4398 50.8003 54.4369 50.0277C54.4372 49.5395 54.4377 49.0513 54.4386 48.563C54.4373 48.2146 54.4373 48.2146 54.4359 47.8592C54.4373 47.6446 54.4387 47.4301 54.4402 47.209C54.4405 47.0197 54.4409 46.8304 54.4413 46.6353C54.5304 45.9186 54.7896 45.7411 55.4941 45.6705Z" fill="#484848"/>
<path d="M37.133 14.2547C38.1946 14.4249 38.6379 14.7405 39.4164 15.491C39.6347 15.6973 39.8535 15.9031 40.0728 16.1083C40.1836 16.2123 40.2944 16.3163 40.4085 16.4234C40.9192 16.8897 41.4564 17.3205 41.9959 17.7529C42.8436 18.4384 43.6821 19.1313 44.5049 19.8463C44.6918 20.008 44.8788 20.1697 45.0714 20.3363C45.4775 20.7735 45.4775 20.7735 45.4775 21.4479C44.3978 21.4646 43.3183 21.4768 42.2386 21.485C41.8713 21.4883 41.504 21.493 41.1367 21.4988C40.6088 21.507 40.081 21.5108 39.553 21.5138C39.3066 21.519 39.3066 21.519 39.0553 21.5243C38.4204 21.5245 37.9271 21.5137 37.3664 21.1999C37.0134 20.5551 37.0573 20.012 37.0669 19.2817C37.0702 18.8438 37.0702 18.8438 37.0735 18.397C37.0792 18.0887 37.0849 17.7803 37.0907 17.472C37.0941 17.161 37.0972 16.85 37.0999 16.539C37.1079 15.7775 37.1191 15.0161 37.133 14.2547Z" fill="#484848"/>
</svg>
