<svg width="99" height="99" viewBox="0 0 99 99" fill="none" xmlns="http://www.w3.org/2000/svg">
<path d="M6.1875 29.5685C34.7738 29.5685 63.36 29.5685 92.8125 29.5685C92.8125 32.0576 92.8125 34.5467 92.8125 37.1112C90.1325 37.1112 87.4526 37.1112 84.6914 37.1112C84.7031 37.6889 84.7148 38.2665 84.7269 38.8617C84.8425 44.7437 84.9222 50.6259 84.9871 56.5088C84.9935 57.0865 85 57.6642 85.0065 58.242C85.017 59.1726 85.0271 60.1031 85.037 61.0337C85.0406 61.3757 85.0444 61.7177 85.0482 62.0598C85.0805 64.9612 85.0781 67.8613 85.0781 70.7633C80.9306 70.7633 76.783 70.7633 72.5098 70.7633C72.5098 67.7119 72.5105 64.6623 72.5453 61.6114C72.5491 61.2582 72.5529 60.9051 72.5567 60.552C72.5668 59.6249 72.5772 58.6979 72.5879 57.7709C72.5944 57.1957 72.6009 56.6206 72.6073 56.0454C72.678 49.7334 72.7758 43.4226 72.8965 37.1112C67.0899 37.1112 61.2833 37.1112 55.3008 37.1112C55.3646 37.8133 55.4284 38.5153 55.4941 39.2387C55.5143 39.7854 55.5293 40.3282 55.5338 40.8748C55.5358 41.0247 55.5377 41.1745 55.5396 41.3289C55.5457 41.8215 55.5505 42.3142 55.5553 42.8068C55.5593 43.1607 55.5634 43.5146 55.5675 43.8685C55.5783 44.8165 55.5878 45.7646 55.5971 46.7126C55.6029 47.3017 55.6091 47.8907 55.6153 48.4797C55.6597 52.6862 55.694 56.8925 55.6996 61.0992C55.6998 61.2508 55.7 61.4024 55.7002 61.5587C55.7035 64.6269 55.6938 67.6951 55.6875 70.7633C51.6037 70.7633 47.52 70.7633 43.3125 70.7633C43.2974 63.2781 43.2974 63.2781 43.3004 60.936C43.3006 60.7706 43.3008 60.6052 43.3011 60.4348C43.3076 56.2141 43.3456 51.9937 43.3909 47.7732C43.3971 47.1935 43.4029 46.6138 43.4086 46.0341C43.4178 45.1142 43.4279 44.1942 43.4387 43.2743C43.4426 42.9353 43.4463 42.5963 43.4496 42.2573C43.4543 41.7895 43.4601 41.3217 43.4662 40.854C43.4673 40.721 43.4684 40.588 43.4695 40.4511C43.4861 39.3229 43.5961 38.246 43.6992 37.1112C37.8926 37.1112 32.0861 37.1112 26.1035 37.1112C26.1454 39.3012 26.1454 39.3012 26.1881 41.5353C26.2793 46.565 26.343 51.5949 26.3992 56.625C26.4056 57.1953 26.4121 57.7655 26.4186 58.3357C26.4291 59.2538 26.4392 60.172 26.4491 61.0901C26.4527 61.4272 26.4565 61.7643 26.4603 62.1015C26.4929 64.989 26.4902 67.8751 26.4902 70.7633C22.3427 70.7633 18.1951 70.7633 13.9219 70.7633C13.9219 67.6955 13.923 64.6295 13.9574 61.5623C13.9612 61.2043 13.965 60.8462 13.9688 60.4882C13.9789 59.5487 13.9893 58.6091 14 57.6696C14.0065 57.087 14.013 56.5044 14.0194 55.9218C14.0888 49.651 14.1814 43.3811 14.3086 37.1112C11.6286 37.1112 8.94867 37.1112 6.1875 37.1112C6.1875 34.6221 6.1875 32.1331 6.1875 29.5685Z" fill="#484848"/>
<path d="M52.5477 0.871706C52.7269 0.943467 52.9061 1.01523 53.0907 1.08917C53.6791 1.32525 54.2663 1.56427 54.8536 1.80321C55.27 1.97069 55.6865 2.13792 56.1031 2.3049C56.7467 2.56293 57.3903 2.82112 58.0335 3.08011C59.9545 3.85346 61.8815 4.61091 63.8108 5.36331C64.728 5.72103 65.6448 6.07962 66.5617 6.43807C66.7461 6.51015 66.9306 6.58223 67.1206 6.65649C69.3368 7.52267 71.5516 8.39209 73.7666 9.26129C77.0715 10.5581 80.3769 11.8533 83.6831 13.1466C85.8843 14.0077 88.0851 14.8698 90.2852 15.7335C90.6235 15.8662 90.6235 15.8662 90.9685 16.0016C92.0669 16.4328 93.1652 16.864 94.2635 17.2954C94.6615 17.4517 95.0595 17.6079 95.4576 17.7642C95.6371 17.8347 95.8165 17.9053 96.0014 17.978C96.1704 18.0443 96.3393 18.1106 96.5134 18.1789C96.6583 18.2358 96.8033 18.2928 96.9526 18.3514C97.6332 18.6141 98.3169 18.8686 99 19.1248C99 20.7204 99 22.316 99 23.9599C66.33 23.9599 33.66 23.9599 0 23.9599C0 22.3643 0 20.7687 0 19.1248C0.459123 18.949 0.918245 18.7733 1.39128 18.5922C4.64337 17.3458 7.89215 16.0919 11.1302 14.8095C11.2791 14.7506 11.428 14.6916 11.5814 14.6309C11.7321 14.5712 11.8828 14.5115 12.0381 14.45C14.4161 13.5084 16.7968 12.5739 19.1788 11.6426C19.9341 11.3472 20.6895 11.0518 21.4448 10.7564C21.6354 10.6818 21.8261 10.6072 22.0226 10.5304C24.2334 9.66563 26.4435 8.79871 28.6534 7.93165C28.8568 7.85185 29.0602 7.77205 29.2698 7.68984C30.0967 7.36541 30.9237 7.04097 31.7506 6.71651C33.0377 6.21152 34.3248 5.70661 35.6119 5.20183C36.0491 5.03035 36.4863 4.85885 36.9235 4.68732C37.9829 4.27168 39.0424 3.85654 40.1025 3.44255C41.8288 2.7678 43.5533 2.09076 45.2665 1.38316C45.5206 1.27922 45.7748 1.17536 46.029 1.07158C46.4688 0.891114 46.9074 0.707694 47.3443 0.520361C47.6255 0.405578 47.6255 0.405578 47.9123 0.288477C48.0673 0.222956 48.2222 0.157434 48.3819 0.0899276C49.8567 -0.216932 51.1984 0.315633 52.5477 0.871706ZM40.7988 11.5821C40.7988 13.433 40.7988 15.2838 40.7988 17.1908C46.5416 17.1908 52.2844 17.1908 58.2012 17.1908C58.2012 15.3399 58.2012 13.4891 58.2012 11.5821C52.4584 11.5821 46.7156 11.5821 40.7988 11.5821Z" fill="#484848"/>
<path d="M0 90.4903C32.67 90.4903 65.34 90.4903 99 90.4903C99 93.2985 99 96.1067 99 99C66.33 99 33.66 99 0 99C0 96.1918 0 93.3836 0 90.4903Z" fill="#484848"/>
<path d="M6.1875 76.3719C34.7738 76.3719 63.36 76.3719 92.8125 76.3719C92.8125 79.1163 92.8125 81.8607 92.8125 84.6882C64.2262 84.6882 35.64 84.6882 6.1875 84.6882C6.1875 81.9438 6.1875 79.1995 6.1875 76.3719Z" fill="#484848"/>
</svg>
