<?xml version="1.0" encoding="UTF-8"?>
<svg xmlns="http://www.w3.org/2000/svg" xmlns:xlink="http://www.w3.org/1999/xlink" width="99px" height="99px" viewBox="0 0 99 99" version="1.1">
<g id="surface1">
<path style=" stroke:none;fill-rule:nonzero;fill:rgb(47.843137%,0.784314%,3.137255%);fill-opacity:1;" d="M 6.1875 29.582031 C 34.773438 29.582031 63.359375 29.582031 92.8125 29.582031 C 92.8125 32.074219 92.8125 34.558594 92.8125 37.125 C 90.136719 37.125 87.453125 37.125 84.691406 37.125 C 84.707031 37.707031 84.714844 38.277344 84.730469 38.871094 C 84.847656 44.757812 84.921875 50.636719 84.984375 56.515625 C 84.992188 57.09375 85 57.675781 85.007812 58.246094 C 85.015625 59.183594 85.023438 60.113281 85.039062 61.039062 C 85.039062 61.386719 85.046875 61.726562 85.046875 62.066406 C 85.078125 64.96875 85.078125 67.871094 85.078125 70.769531 C 80.933594 70.769531 76.785156 70.769531 72.511719 70.769531 C 72.511719 67.722656 72.511719 64.667969 72.546875 61.621094 C 72.546875 61.265625 72.554688 60.914062 72.554688 60.558594 C 72.5625 59.632812 72.578125 58.703125 72.585938 57.785156 C 72.59375 57.203125 72.601562 56.632812 72.609375 56.050781 C 72.679688 49.746094 72.773438 43.4375 72.894531 37.125 C 67.089844 37.125 61.289062 37.125 55.300781 37.125 C 55.363281 37.828125 55.433594 38.53125 55.496094 39.253906 C 55.515625 39.800781 55.53125 40.34375 55.53125 40.882812 C 55.53125 41.039062 55.539062 41.183594 55.539062 41.339844 C 55.546875 41.835938 55.546875 42.332031 55.554688 42.816406 C 55.554688 43.171875 55.5625 43.527344 55.5625 43.878906 C 55.578125 44.828125 55.585938 45.78125 55.59375 46.722656 C 55.601562 47.3125 55.609375 47.898438 55.617188 48.496094 C 55.65625 52.695312 55.695312 56.902344 55.703125 61.109375 C 55.703125 61.257812 55.703125 61.410156 55.703125 61.566406 C 55.703125 64.636719 55.695312 67.699219 55.6875 70.769531 C 51.605469 70.769531 47.519531 70.769531 43.3125 70.769531 C 43.296875 63.28125 43.296875 63.28125 43.296875 60.945312 C 43.296875 60.777344 43.296875 60.613281 43.304688 60.445312 C 43.304688 56.222656 43.34375 52.007812 43.390625 47.78125 C 43.398438 47.203125 43.40625 46.621094 43.40625 46.042969 C 43.421875 45.128906 43.429688 44.210938 43.4375 43.289062 C 43.445312 42.949219 43.445312 42.609375 43.453125 42.269531 C 43.453125 41.804688 43.460938 41.332031 43.46875 40.867188 C 43.46875 40.738281 43.46875 40.597656 43.46875 40.464844 C 43.484375 39.335938 43.597656 38.261719 43.699219 37.125 C 37.890625 37.125 32.082031 37.125 26.105469 37.125 C 26.140625 39.3125 26.140625 39.3125 26.1875 41.550781 C 26.28125 46.578125 26.34375 51.605469 26.398438 56.632812 C 26.40625 57.203125 26.414062 57.777344 26.421875 58.347656 C 26.429688 59.261719 26.4375 60.179688 26.453125 61.101562 C 26.453125 61.433594 26.460938 61.773438 26.460938 62.105469 C 26.488281 65 26.488281 67.882812 26.488281 70.769531 C 22.34375 70.769531 18.191406 70.769531 13.921875 70.769531 C 13.921875 67.699219 13.921875 64.636719 13.960938 61.574219 C 13.960938 61.210938 13.96875 60.855469 13.96875 60.5 C 13.976562 59.554688 13.992188 58.617188 14 57.675781 C 14.007812 57.09375 14.015625 56.515625 14.023438 55.933594 C 14.09375 49.664062 14.183594 43.390625 14.308594 37.125 C 11.632812 37.125 8.949219 37.125 6.1875 37.125 C 6.1875 34.632812 6.1875 32.144531 6.1875 29.582031 Z M 6.1875 29.582031 "/>
<path style=" stroke:none;fill-rule:nonzero;fill:rgb(47.843137%,0.784314%,3.137255%);fill-opacity:1;" d="M 52.546875 0.898438 C 52.726562 0.964844 52.902344 1.035156 53.089844 1.113281 C 53.675781 1.347656 54.265625 1.585938 54.851562 1.824219 C 55.269531 1.996094 55.6875 2.15625 56.105469 2.328125 C 56.746094 2.582031 57.390625 2.847656 58.03125 3.101562 C 59.957031 3.875 61.882812 4.632812 63.808594 5.382812 C 64.730469 5.738281 65.640625 6.101562 66.5625 6.457031 C 66.746094 6.527344 66.933594 6.605469 67.117188 6.675781 C 69.339844 7.542969 71.550781 8.414062 73.769531 9.28125 C 77.074219 10.582031 80.375 11.871094 83.6875 13.164062 C 85.882812 14.03125 88.085938 14.886719 90.285156 15.753906 C 90.625 15.886719 90.625 15.886719 90.972656 16.019531 C 92.070312 16.449219 93.167969 16.882812 94.265625 17.316406 C 94.660156 17.472656 95.0625 17.625 95.457031 17.78125 C 95.636719 17.851562 95.8125 17.921875 96 17.996094 C 96.167969 18.058594 96.339844 18.128906 96.515625 18.199219 C 96.65625 18.253906 96.804688 18.308594 96.949219 18.371094 C 97.632812 18.632812 98.320312 18.886719 99 19.144531 C 99 20.734375 99 22.335938 99 23.976562 C 66.328125 23.976562 33.660156 23.976562 0 23.976562 C 0 22.382812 0 20.789062 0 19.144531 C 0.457031 18.964844 0.921875 18.792969 1.390625 18.609375 C 4.640625 17.363281 7.890625 16.109375 11.128906 14.828125 C 11.277344 14.773438 11.429688 14.710938 11.578125 14.648438 C 11.734375 14.585938 11.878906 14.53125 12.035156 14.472656 C 14.417969 13.527344 16.800781 12.589844 19.179688 11.664062 C 19.929688 11.371094 20.691406 11.066406 21.449219 10.773438 C 21.632812 10.703125 21.828125 10.628906 22.019531 10.550781 C 24.230469 9.683594 26.445312 8.816406 28.65625 7.949219 C 28.855469 7.875 29.058594 7.789062 29.265625 7.710938 C 30.09375 7.386719 30.921875 7.0625 31.75 6.738281 C 33.042969 6.234375 34.324219 5.730469 35.609375 5.222656 C 36.050781 5.050781 36.484375 4.878906 36.925781 4.710938 C 37.984375 4.292969 39.042969 3.875 40.101562 3.464844 C 41.828125 2.792969 43.550781 2.113281 45.269531 1.40625 C 45.523438 1.300781 45.773438 1.199219 46.027344 1.089844 C 46.46875 0.914062 46.910156 0.726562 47.34375 0.542969 C 47.628906 0.425781 47.628906 0.425781 47.914062 0.308594 C 48.070312 0.246094 48.222656 0.179688 48.378906 0.109375 C 49.855469 -0.191406 51.203125 0.339844 52.546875 0.898438 Z M 40.800781 11.601562 C 40.800781 13.449219 40.800781 15.296875 40.800781 17.207031 C 46.546875 17.207031 52.285156 17.207031 58.199219 17.207031 C 58.199219 15.359375 58.199219 13.503906 58.199219 11.601562 C 52.453125 11.601562 46.714844 11.601562 40.800781 11.601562 Z M 40.800781 11.601562 "/>
<path style=" stroke:none;fill-rule:nonzero;fill:rgb(28.235295%,28.235295%,28.235295%);fill-opacity:1;" d="M 0 90.492188 C 32.671875 90.492188 65.339844 90.492188 99 90.492188 C 99 93.300781 99 96.105469 99 99 C 66.328125 99 33.660156 99 0 99 C 0 96.191406 0 93.386719 0 90.492188 Z M 0 90.492188 "/>
<path style=" stroke:none;fill-rule:nonzero;fill:rgb(28.235295%,28.235295%,28.235295%);fill-opacity:1;" d="M 6.1875 76.378906 C 34.773438 76.378906 63.359375 76.378906 92.8125 76.378906 C 92.8125 79.121094 92.8125 81.859375 92.8125 84.691406 C 64.226562 84.691406 35.640625 84.691406 6.1875 84.691406 C 6.1875 81.945312 6.1875 79.199219 6.1875 76.378906 Z M 6.1875 76.378906 "/>
</g>
</svg>
