<?xml version="1.0" encoding="UTF-8"?>
<svg xmlns="http://www.w3.org/2000/svg" xmlns:xlink="http://www.w3.org/1999/xlink" width="99px" height="99px" viewBox="0 0 99 99" version="1.1">
<g id="surface1">
<path style=" stroke:none;fill-rule:nonzero;fill:rgb(28.235295%,28.235295%,28.235295%);fill-opacity:1;" d="M 13.730469 75.382812 C 13.867188 75.382812 14.003906 75.378906 14.144531 75.378906 C 14.601562 75.378906 15.058594 75.375 15.515625 75.375 C 15.84375 75.375 16.171875 75.375 16.5 75.371094 C 17.578125 75.367188 18.65625 75.367188 19.734375 75.363281 C 20.105469 75.363281 20.476562 75.363281 20.851562 75.363281 C 22.597656 75.359375 24.34375 75.355469 26.089844 75.355469 C 28.101562 75.351562 30.113281 75.347656 32.128906 75.339844 C 33.683594 75.332031 35.242188 75.332031 36.800781 75.328125 C 37.730469 75.328125 38.65625 75.328125 39.585938 75.324219 C 40.460938 75.316406 41.339844 75.316406 42.214844 75.320312 C 42.535156 75.320312 42.851562 75.316406 43.171875 75.316406 C 45.953125 75.292969 48.210938 75.789062 50.304688 77.730469 C 51.777344 79.269531 52.621094 81.070312 52.613281 83.203125 C 52.613281 83.433594 52.613281 83.667969 52.609375 83.90625 C 52.609375 84.152344 52.609375 84.394531 52.605469 84.644531 C 52.605469 84.886719 52.605469 85.132812 52.601562 85.386719 C 52.601562 85.992188 52.597656 86.597656 52.59375 87.203125 C 52.828125 87.195312 53.0625 87.1875 53.304688 87.179688 C 54.59375 87.179688 55.535156 87.839844 56.605469 88.5 C 58.191406 90.128906 58.4375 91.730469 58.453125 93.917969 C 58.453125 94.1875 58.457031 94.457031 58.464844 94.726562 C 58.472656 95.117188 58.476562 95.507812 58.476562 95.898438 C 58.480469 96.246094 58.480469 96.246094 58.484375 96.605469 C 58.355469 97.550781 57.96875 98.125 57.246094 98.738281 C 56.332031 99.140625 55.449219 99.082031 54.460938 99.074219 C 54.238281 99.074219 54.011719 99.078125 53.78125 99.078125 C 53.160156 99.082031 52.539062 99.078125 51.917969 99.078125 C 51.246094 99.078125 50.574219 99.082031 49.902344 99.082031 C 48.589844 99.085938 47.277344 99.085938 45.960938 99.085938 C 44.894531 99.082031 43.828125 99.085938 42.757812 99.085938 C 42.53125 99.085938 42.53125 99.085938 42.300781 99.085938 C 41.992188 99.085938 41.683594 99.085938 41.371094 99.085938 C 38.476562 99.089844 35.582031 99.089844 32.6875 99.085938 C 30.039062 99.082031 27.390625 99.085938 24.742188 99.089844 C 22.023438 99.097656 19.304688 99.097656 16.582031 99.097656 C 15.058594 99.097656 13.53125 99.097656 12.003906 99.097656 C 10.703125 99.101562 9.402344 99.101562 8.105469 99.097656 C 7.441406 99.097656 6.777344 99.097656 6.113281 99.101562 C 5.394531 99.101562 4.675781 99.101562 3.957031 99.097656 C 3.75 99.097656 3.539062 99.101562 3.324219 99.101562 C 2.152344 99.089844 1.46875 99.011719 0.582031 98.226562 C -0.234375 97.195312 -0.101562 96.074219 -0.0976562 94.816406 C -0.0976562 94.425781 -0.105469 94.035156 -0.113281 93.644531 C -0.117188 92.03125 0.0859375 90.886719 0.96875 89.523438 C 1.128906 89.261719 1.128906 89.261719 1.292969 88.992188 C 2.144531 88.167969 3.425781 87.246094 4.648438 87.1875 C 4.785156 87.1875 4.921875 87.191406 5.0625 87.191406 C 5.308594 87.195312 5.550781 87.199219 5.800781 87.203125 C 5.796875 87.058594 5.792969 86.910156 5.789062 86.757812 C 5.773438 86.082031 5.761719 85.40625 5.753906 84.726562 C 5.746094 84.496094 5.738281 84.265625 5.734375 84.027344 C 5.707031 81.542969 6.425781 79.53125 8.121094 77.699219 C 9.71875 76.171875 11.53125 75.390625 13.730469 75.382812 Z M 13.730469 75.382812 "/>
<path style=" stroke:none;fill-rule:nonzero;fill:rgb(28.235295%,28.235295%,28.235295%);fill-opacity:1;" d="M 54.234375 10.734375 C 55.019531 10.886719 55.320312 11.5 55.746094 12.121094 C 55.953125 12.40625 56.15625 12.691406 56.363281 12.976562 C 56.527344 13.207031 56.527344 13.207031 56.695312 13.441406 C 57.300781 14.28125 57.933594 15.097656 58.5625 15.914062 C 59.664062 17.355469 60.746094 18.804688 61.816406 20.269531 C 62.9375 21.792969 64.089844 23.300781 65.238281 24.804688 C 65.898438 25.667969 66.550781 26.535156 67.203125 27.40625 C 67.71875 28.09375 68.238281 28.777344 68.761719 29.457031 C 70.042969 31.132812 71.308594 32.816406 72.550781 34.519531 C 72.652344 34.65625 72.757812 34.796875 72.859375 34.941406 C 72.960938 35.078125 73.058594 35.214844 73.160156 35.351562 C 73.386719 35.648438 73.621094 35.941406 73.863281 36.222656 C 74.820312 37.359375 74.820312 37.359375 74.867188 38.113281 C 74.585938 38.796875 74.253906 39.425781 73.863281 40.050781 C 73.746094 40.238281 73.746094 40.238281 73.628906 40.433594 C 72.410156 42.382812 71 44.160156 69.414062 45.828125 C 69.328125 45.917969 69.242188 46.007812 69.152344 46.105469 C 64.804688 50.691406 58.847656 54.144531 52.59375 55.300781 C 52.394531 55.339844 52.191406 55.378906 51.984375 55.421875 C 51.0625 55.21875 50.683594 54.496094 50.152344 53.753906 C 50.035156 53.59375 49.917969 53.4375 49.792969 53.273438 C 49.550781 52.945312 49.308594 52.621094 49.070312 52.289062 C 48.671875 51.75 48.269531 51.210938 47.867188 50.675781 C 47.582031 50.300781 47.304688 49.925781 47.023438 49.546875 C 46.316406 48.605469 45.597656 47.667969 44.882812 46.734375 C 43.894531 45.441406 42.921875 44.140625 41.960938 42.828125 C 40.882812 41.359375 39.785156 39.90625 38.679688 38.460938 C 37.679688 37.15625 36.691406 35.84375 35.707031 34.523438 C 35.066406 33.660156 34.414062 32.808594 33.75 31.960938 C 33.605469 31.777344 33.464844 31.59375 33.316406 31.40625 C 33.042969 31.054688 32.765625 30.703125 32.488281 30.351562 C 31.265625 28.78125 31.265625 28.78125 31.324219 27.84375 C 31.546875 27.3125 31.765625 26.871094 32.0625 26.382812 C 32.140625 26.246094 32.21875 26.113281 32.300781 25.972656 C 33.542969 23.898438 35.078125 22.054688 36.738281 20.304688 C 36.910156 20.121094 37.078125 19.9375 37.253906 19.75 C 41.75 15.023438 47.867188 11.96875 54.234375 10.734375 Z M 54.234375 10.734375 "/>
<path style=" stroke:none;fill-rule:nonzero;fill:rgb(47.843137%,0.784314%,3.137255%);fill-opacity:1;" d="M 26.683594 32.097656 C 27.484375 32.699219 28.09375 33.328125 28.691406 34.128906 C 28.855469 34.351562 29.023438 34.574219 29.191406 34.796875 C 29.285156 34.921875 29.375 35.042969 29.472656 35.171875 C 29.808594 35.621094 30.152344 36.070312 30.496094 36.515625 C 31.867188 38.304688 33.222656 40.109375 34.554688 41.925781 C 35.523438 43.246094 36.511719 44.546875 37.503906 45.84375 C 38.503906 47.152344 39.492188 48.464844 40.476562 49.78125 C 41.507812 51.15625 42.546875 52.523438 43.59375 53.882812 C 47.117188 58.484375 47.117188 58.484375 46.792969 61.488281 C 46.519531 63.015625 45.691406 64.355469 44.4375 65.277344 C 42.921875 66.171875 41.269531 66.601562 39.523438 66.210938 C 36.867188 65.390625 35.503906 63.261719 33.960938 61.109375 C 33.300781 60.183594 32.609375 59.289062 31.90625 58.394531 C 30.875 57.082031 29.875 55.746094 28.886719 54.398438 C 27.761719 52.859375 26.605469 51.347656 25.445312 49.832031 C 24.789062 48.972656 24.136719 48.101562 23.488281 47.234375 C 23.089844 46.699219 22.683594 46.171875 22.277344 45.644531 C 17.242188 39.078125 17.242188 39.078125 17.59375 36.15625 C 17.933594 34.679688 18.546875 33.464844 19.722656 32.484375 C 21.957031 31.105469 24.300781 30.851562 26.683594 32.097656 Z M 26.683594 32.097656 "/>
<path style=" stroke:none;fill-rule:nonzero;fill:rgb(47.843137%,0.784314%,3.137255%);fill-opacity:1;" d="M 67.976562 0.484375 C 69.011719 1.085938 69.679688 1.75 70.382812 2.707031 C 70.546875 2.921875 70.707031 3.136719 70.871094 3.351562 C 71.261719 3.871094 71.652344 4.390625 72.039062 4.910156 C 72.757812 5.878906 73.492188 6.835938 74.226562 7.792969 C 75.214844 9.085938 76.1875 10.386719 77.148438 11.699219 C 78.605469 13.683594 80.101562 15.640625 81.597656 17.59375 C 82.632812 18.945312 83.664062 20.300781 84.691406 21.65625 C 84.816406 21.824219 84.945312 21.988281 85.074219 22.160156 C 85.445312 22.648438 85.8125 23.136719 86.179688 23.625 C 86.285156 23.769531 86.394531 23.914062 86.507812 24.058594 C 87.808594 25.808594 88.765625 27.539062 88.558594 29.777344 C 88.273438 31.40625 87.539062 32.726562 86.234375 33.761719 C 84.695312 34.769531 83.21875 34.972656 81.40625 34.804688 C 79.144531 34.273438 77.792969 32.609375 76.472656 30.816406 C 76.203125 30.453125 75.929688 30.089844 75.660156 29.730469 C 75.523438 29.542969 75.386719 29.359375 75.242188 29.171875 C 74.714844 28.464844 74.183594 27.765625 73.648438 27.070312 C 72.429688 25.480469 71.234375 23.878906 70.050781 22.265625 C 69.085938 20.949219 68.09375 19.648438 67.101562 18.351562 C 66.101562 17.039062 65.105469 15.722656 64.117188 14.398438 C 63.496094 13.566406 62.871094 12.738281 62.234375 11.914062 C 62.105469 11.742188 61.972656 11.570312 61.839844 11.394531 C 61.589844 11.066406 61.339844 10.742188 61.085938 10.417969 C 59.609375 8.480469 59.101562 6.910156 59.359375 4.445312 C 59.773438 2.761719 60.613281 1.621094 62.09375 0.714844 C 63.871094 -0.316406 66.105469 -0.390625 67.976562 0.484375 Z M 67.976562 0.484375 "/>
<path style=" stroke:none;fill-rule:nonzero;fill:rgb(28.235295%,28.235295%,28.235295%);fill-opacity:1;" d="M 80.242188 59.554688 C 81.070312 60.339844 81.761719 61.191406 82.457031 62.09375 C 82.574219 62.246094 82.691406 62.398438 82.8125 62.554688 C 83.753906 63.777344 84.671875 65.015625 85.582031 66.257812 C 86.570312 67.605469 87.578125 68.933594 88.59375 70.261719 C 89.453125 71.386719 90.308594 72.515625 91.15625 73.652344 C 91.820312 74.539062 92.492188 75.421875 93.164062 76.304688 C 94.324219 77.820312 95.480469 79.339844 96.621094 80.871094 C 96.726562 81.015625 96.835938 81.164062 96.949219 81.3125 C 98.605469 83.546875 99.347656 85.433594 98.929688 88.25 C 98.523438 89.585938 97.386719 90.792969 96.25 91.554688 C 94.761719 92.320312 93.144531 92.496094 91.511719 92.105469 C 89.667969 91.4375 88.453125 90.074219 87.300781 88.535156 C 87.1875 88.382812 87.074219 88.234375 86.957031 88.082031 C 86.710938 87.761719 86.46875 87.441406 86.226562 87.121094 C 85.847656 86.621094 85.464844 86.121094 85.085938 85.625 C 83.726562 83.855469 82.390625 82.074219 81.074219 80.277344 C 80.09375 78.941406 79.089844 77.621094 78.082031 76.304688 C 77.316406 75.300781 76.550781 74.292969 75.796875 73.28125 C 74.496094 71.542969 73.175781 69.816406 71.855469 68.085938 C 71.753906 67.953125 71.648438 67.816406 71.542969 67.675781 C 71.433594 67.539062 71.324219 67.402344 71.210938 67.261719 C 70.960938 66.902344 70.960938 66.902344 70.960938 66.515625 C 71.246094 66.265625 71.246094 66.265625 71.644531 65.980469 C 71.792969 65.875 71.941406 65.765625 72.09375 65.65625 C 72.335938 65.484375 72.335938 65.484375 72.582031 65.308594 C 73.898438 64.355469 75.195312 63.386719 76.472656 62.382812 C 77.710938 61.410156 78.960938 60.464844 80.242188 59.554688 Z M 80.242188 59.554688 "/>
<path style=" stroke:none;fill-rule:nonzero;fill:rgb(28.235295%,28.235295%,28.235295%);fill-opacity:1;" d="M 73.089844 49.886719 C 73.914062 50.679688 74.566406 51.566406 75.242188 52.484375 C 75.363281 52.648438 75.484375 52.8125 75.613281 52.980469 C 75.730469 53.140625 75.847656 53.300781 75.96875 53.464844 C 76.074219 53.605469 76.179688 53.75 76.289062 53.898438 C 76.582031 54.351562 76.773438 54.796875 76.957031 55.300781 C 73.957031 57.597656 70.949219 59.878906 67.867188 62.070312 C 67.234375 61.800781 66.90625 61.507812 66.496094 60.957031 C 66.390625 60.816406 66.28125 60.671875 66.171875 60.527344 C 66.0625 60.378906 65.953125 60.226562 65.839844 60.074219 C 65.621094 59.78125 65.398438 59.488281 65.179688 59.195312 C 65.078125 59.054688 64.976562 58.917969 64.867188 58.773438 C 64.628906 58.457031 64.375 58.148438 64.117188 57.84375 C 63.808594 57.429688 63.808594 57.429688 63.808594 56.847656 C 64.089844 56.613281 64.089844 56.613281 64.488281 56.386719 C 64.707031 56.257812 64.707031 56.257812 64.929688 56.128906 C 65.085938 56.039062 65.242188 55.949219 65.402344 55.855469 C 67.597656 54.558594 69.535156 53.101562 71.390625 51.351562 C 71.941406 50.84375 72.507812 50.363281 73.089844 49.886719 Z M 73.089844 49.886719 "/>
</g>
</svg>
