<svg width="99" height="99" viewBox="0 0 99 99" fill="none" xmlns="http://www.w3.org/2000/svg">
<path d="M13.8223 75.3326C13.9586 75.3318 14.0949 75.3311 14.2354 75.3304C14.6923 75.3283 15.1491 75.3275 15.606 75.3268C15.9336 75.3256 16.2612 75.3243 16.5888 75.323C17.6649 75.3189 18.7411 75.3169 19.8172 75.315C20.1882 75.3142 20.5591 75.3134 20.9301 75.3126C22.6734 75.3089 24.4168 75.3062 26.1601 75.3046C28.1698 75.3027 30.1795 75.2976 32.1891 75.2898C33.7441 75.284 35.299 75.2811 36.854 75.2805C37.7819 75.28 38.7097 75.2783 39.6376 75.2735C40.5115 75.269 41.3853 75.2682 42.2593 75.2701C42.5787 75.2702 42.8982 75.269 43.2176 75.2664C45.9918 75.2446 48.2457 75.7406 50.3375 77.676C51.8064 79.2126 52.6521 81.0084 52.6421 83.1352C52.6414 83.3677 52.6408 83.6002 52.6402 83.8398C52.6386 84.0818 52.6369 84.3238 52.6353 84.5731C52.6344 84.818 52.6335 85.063 52.6326 85.3154C52.6304 85.92 52.6272 86.5247 52.6232 87.1293C52.8574 87.1204 53.0916 87.1114 53.3328 87.1022C54.6192 87.1033 55.56 87.7639 56.629 88.4195C58.212 90.0454 58.4592 91.6452 58.4717 93.8265C58.474 94.0954 58.4779 94.3642 58.4836 94.6331C58.4919 95.023 58.495 95.4126 58.497 95.8026C58.5012 96.1517 58.5012 96.1517 58.5055 96.5079C58.3746 97.4503 57.9899 98.0232 57.2692 98.6368C56.3566 99.039 55.4743 98.9779 54.4876 98.9725C54.2637 98.9735 54.0398 98.9746 53.8091 98.9756C53.1884 98.9779 52.5677 98.9776 51.947 98.9762C51.2773 98.9753 50.6076 98.9777 49.9379 98.9797C48.6262 98.983 47.3145 98.9831 46.0028 98.9821C44.9367 98.9813 43.8706 98.9816 42.8045 98.9827C42.577 98.9829 42.577 98.9829 42.3448 98.9831C42.0367 98.9834 41.7285 98.9837 41.4203 98.984C38.53 98.9866 35.6397 98.9856 32.7493 98.9834C30.1049 98.9814 27.4604 98.9839 24.816 98.9886C22.1008 98.9933 19.3857 98.9951 16.6705 98.9938C15.1461 98.9932 13.6217 98.9936 12.0973 98.997C10.7996 98.9998 9.50189 98.9999 8.20419 98.9966C7.54208 98.9949 6.88004 98.9945 6.21794 98.9975C5.50019 99 4.7826 98.9978 4.06485 98.9944C3.85555 98.9962 3.64626 98.9981 3.43062 99C2.26351 98.9885 1.57943 98.9075 0.692308 98.126C-0.121508 97.0987 0.0122041 95.9786 0.016439 94.7218C0.0166255 94.3321 0.0086112 93.9431 3.71709e-05 93.5535C-0.00316236 91.9428 0.198974 90.8025 1.07841 89.4444C1.23967 89.1818 1.23967 89.1818 1.40419 88.9139C2.25303 88.0885 3.53534 87.1687 4.75469 87.1105C4.89131 87.1127 5.02793 87.115 5.16869 87.1173C5.41158 87.1212 5.65446 87.1252 5.9047 87.1293C5.90066 86.9826 5.89662 86.836 5.89245 86.6848C5.87623 86.0091 5.8663 85.3334 5.85644 84.6575C5.84997 84.4268 5.8435 84.1962 5.83683 83.9585C5.8098 81.4798 6.52799 79.4729 8.22132 77.6451C9.8181 76.1207 11.6273 75.34 13.8223 75.3326Z" fill="#484848"/>
<path d="M54.2604 10.8316C55.0438 10.9809 55.3452 11.5932 55.7724 12.2145C55.9769 12.4995 56.1818 12.7844 56.387 13.0691C56.5504 13.2984 56.5504 13.2984 56.7172 13.5323C57.3218 14.3684 57.9546 15.1828 58.5837 16.0006C59.6823 17.4366 60.7627 18.8846 61.8317 20.3428C62.951 21.8661 64.0992 23.367 65.2477 24.8683C65.9071 25.7303 66.5588 26.5975 67.2084 27.4668C67.7226 28.152 68.2441 28.8315 68.7646 29.5119C70.0429 31.1832 71.3087 32.8622 72.5499 34.5613C72.6516 34.7003 72.7534 34.8393 72.8582 34.9825C72.9568 35.1184 73.0554 35.2543 73.1569 35.3944C73.3813 35.6906 73.616 35.9792 73.8573 36.2618C74.815 37.3958 74.815 37.3958 74.8604 38.1492C74.5797 38.8301 74.2482 39.4568 73.8589 40.0799C73.7426 40.2691 73.7426 40.2691 73.624 40.4622C72.4085 42.4095 71.0001 44.1794 69.4187 45.8436C69.3324 45.9351 69.2461 46.0266 69.1571 46.1209C64.8136 50.6985 58.8686 54.1425 52.6232 55.2968C52.4226 55.3366 52.2221 55.3764 52.0154 55.4174C51.0935 55.2155 50.7163 54.4928 50.1859 53.7534C50.0679 53.5954 49.95 53.4373 49.8284 53.2744C49.5857 52.9486 49.3445 52.6216 49.1049 52.2934C48.7096 51.7522 48.3069 51.2168 47.9031 50.6819C47.6212 50.3079 47.341 49.9327 47.0609 49.5573C46.3562 48.6154 45.6402 47.6821 44.9253 46.7479C43.9394 45.4586 42.965 44.1621 42.0054 42.8532C40.9304 41.3871 39.8343 39.9382 38.7295 38.4944C37.733 37.1915 36.7453 35.8824 35.7651 34.5672C35.1223 33.7067 34.4712 32.854 33.8082 32.0088C33.666 31.8262 33.5238 31.6437 33.3772 31.4556C33.1028 31.104 32.8266 30.7538 32.5485 30.4051C31.3278 28.8358 31.3278 28.8358 31.3875 27.9016C31.6096 27.3716 31.83 26.9295 32.1235 26.4426C32.2023 26.3079 32.2811 26.1732 32.3622 26.0344C33.6014 23.9635 35.1348 22.1269 36.793 20.3776C36.9629 20.1953 37.1329 20.013 37.308 19.8252C41.7955 15.1087 47.9028 12.0622 54.2604 10.8316Z" fill="#484848"/>
<path d="M26.7543 32.1459C27.5528 32.7477 28.1614 33.372 28.7572 34.1716C28.9246 34.3942 29.092 34.6168 29.2594 34.8393C29.3513 34.9624 29.4432 35.0854 29.5379 35.2122C29.8756 35.6618 30.2172 36.1084 30.5595 36.5546C31.9295 38.341 33.2827 40.1381 34.6138 41.9536C35.58 43.2683 36.5677 44.5659 37.5591 45.8616C38.5562 47.1653 39.5431 48.4762 40.5261 49.7904C41.5536 51.1623 42.593 52.5248 43.6384 53.8831C47.1567 58.4739 47.1567 58.4739 46.8317 61.4704C46.5585 62.9963 45.7334 64.3293 44.4811 65.2528C42.9654 66.1448 41.3156 66.5713 39.5734 66.1812C36.9219 65.3651 35.5607 63.2393 34.0209 61.0913C33.3595 60.1697 32.6688 59.2745 31.9667 58.3836C30.9373 57.0725 29.94 55.7412 28.9554 54.3962C27.8304 52.8625 26.6755 51.3521 25.5198 49.8415C24.8617 48.9811 24.2109 48.1156 23.5629 47.2475C23.1645 46.7165 22.7606 46.1899 22.3563 45.6634C17.3268 39.1125 17.3268 39.1125 17.6809 36.1973C18.0188 34.7237 18.6324 33.5082 19.8044 32.5318C22.0357 31.154 24.3753 30.902 26.7543 32.1459Z" fill="#484848"/>
<path d="M67.9829 0.602847C69.0136 1.20289 69.6836 1.86728 70.384 2.82147C70.5463 3.03595 70.709 3.25021 70.8719 3.4643C71.2632 3.98104 71.6513 4.50011 72.0377 5.02051C72.7565 5.98647 73.4888 6.94187 74.2209 7.89779C75.2067 9.18703 76.1811 10.4836 77.1408 11.7924C78.5943 13.7742 80.0864 15.7257 81.581 17.6766C82.6137 19.0247 83.6438 20.3748 84.6698 21.728C84.796 21.8939 84.9222 22.0599 85.0522 22.2308C85.4212 22.7171 85.7878 23.205 86.1539 23.6935C86.2628 23.8365 86.3717 23.9795 86.4839 24.1269C87.7805 25.8694 88.7377 27.5996 88.5308 29.8309C88.2449 31.4562 87.5146 32.7732 86.2097 33.8054C84.6752 34.8101 83.1996 35.0153 81.3879 34.8469C79.1315 34.3187 77.7828 32.6571 76.4651 30.8678C76.1942 30.506 75.9232 30.1443 75.6522 29.7826C75.5151 29.5986 75.3781 29.4146 75.2368 29.2249C74.7109 28.5219 74.1771 27.8251 73.6428 27.1285C72.4283 25.5445 71.2334 23.9476 70.0531 22.3379C69.0872 21.0235 68.0997 19.7262 67.1085 18.4307C66.1078 17.1221 65.1146 15.8082 64.1288 14.4883C63.508 13.6572 62.883 12.83 62.2502 12.008C62.1191 11.8366 61.9881 11.6653 61.8532 11.4888C61.6043 11.1635 61.3541 10.8392 61.1024 10.5162C59.6276 8.58072 59.1203 7.01689 59.38 4.55779C59.7926 2.8778 60.6313 1.73859 62.1069 0.831944C63.8845 -0.196648 66.1138 -0.269615 67.9829 0.602847Z" fill="#484848"/>
<path d="M80.2296 59.5412C81.0539 60.3235 81.7452 61.1737 82.4376 62.0733C82.5555 62.2255 82.6734 62.3778 82.7948 62.5346C83.7341 63.7535 84.6493 64.9891 85.5584 66.2305C86.5441 67.5746 87.5526 68.9004 88.5654 70.2242C89.4244 71.3471 90.2763 72.4749 91.1229 73.6072C91.7866 74.4935 92.4571 75.3744 93.1299 76.2538C94.2873 77.767 95.4406 79.2833 96.5787 80.8111C96.6875 80.9556 96.7963 81.1002 96.9085 81.2491C98.5618 83.4808 99.3013 85.3619 98.887 88.1738C98.4788 89.5043 97.346 90.7084 96.2092 91.4678C94.7244 92.2319 93.1087 92.4075 91.4794 92.0202C89.6369 91.3533 88.4272 89.9902 87.276 88.4557C87.162 88.3064 87.048 88.1572 86.9306 88.0035C86.6873 87.6846 86.4448 87.3652 86.2029 87.0454C85.8246 86.546 85.4437 86.0488 85.0619 85.552C83.708 83.7877 82.3734 82.0105 81.0585 80.217C80.0786 78.8835 79.0768 77.5675 78.0713 76.2532C77.3056 75.2522 76.5441 74.2482 75.7894 73.2388C74.4901 71.5014 73.1723 69.7782 71.8548 68.0545C71.7517 67.919 71.6485 67.7836 71.5423 67.644C71.4333 67.507 71.3243 67.37 71.212 67.2289C70.9631 66.8723 70.9631 66.8723 70.9631 66.4864C71.2447 66.2376 71.2447 66.2376 71.6433 65.9529C71.791 65.8461 71.9387 65.7393 72.0909 65.6293C72.333 65.4567 72.333 65.4567 72.5799 65.2807C73.8935 64.3303 75.1896 63.3636 76.4651 62.3627C77.7012 61.3943 78.9482 60.4494 80.2296 59.5412Z" fill="#484848"/>
<path d="M73.0867 49.895C73.9086 50.6879 74.5592 51.5699 75.2344 52.4874C75.3566 52.6506 75.4788 52.8139 75.6047 52.9821C75.7219 53.1409 75.8391 53.2997 75.9598 53.4633C76.0661 53.6069 76.1724 53.7505 76.2819 53.8985C76.5731 54.35 76.7647 54.7929 76.9477 55.2968C73.9543 57.5899 70.9483 59.8647 67.8743 62.0492C67.2413 61.7808 66.9135 61.4912 66.5048 60.9421C66.3976 60.7998 66.2903 60.6574 66.1798 60.5107C66.0701 60.3618 65.9603 60.213 65.8473 60.0597C65.6281 59.7669 65.4089 59.4743 65.1897 59.1817C65.0871 59.0433 64.9846 58.9048 64.879 58.7622C64.6386 58.4446 64.3847 58.1373 64.1279 57.8327C63.8202 57.419 63.8202 57.419 63.8202 56.8402C64.1024 56.6073 64.1024 56.6073 64.4989 56.3805C64.7163 56.2531 64.7163 56.2531 64.9381 56.1232C65.0948 56.0335 65.2514 55.9439 65.4129 55.8515C67.6029 54.5544 69.5366 53.1019 71.3899 51.357C71.941 50.848 72.5066 50.3703 73.0867 49.895Z" fill="#484848"/>
</svg>
