<!DOCTYPE svg PUBLIC "-//W3C//DTD SVG 1.1//EN" "http://www.w3.org/Graphics/SVG/1.1/DTD/svg11.dtd">
<!-- Uploaded to: SVG Repo, www.svgrepo.com, Transformed by: SVG Repo Mixer Tools -->
<svg fill="#ffffff" width="800px" height="800px" viewBox="0 0 24 24" id="down-alt-circle" data-name="Flat Line" xmlns="http://www.w3.org/2000/svg" class="icon flat-line" stroke="#ffffff">
<g id="SVGRepo_bgCarrier" stroke-width="0"/>
<g id="SVGRepo_tracerCarrier" stroke-linecap="round" stroke-linejoin="round"/>
<g id="SVGRepo_iconCarrier">
<path id="secondary" d="M12,21a9,9,0,1,0-9-9A9,9,0,0,0,12,21ZM9.41,12H10V8a1,1,0,0,1,1-1h2a1,1,0,0,1,1,1v4h.59a1,1,0,0,1,.7,1.71l-2.58,2.58a1,1,0,0,1-1.42,0L8.71,13.71A1,1,0,0,1,9.41,12Z" style="fill: #dc3545; stroke-width:0.00024000000000000003;"/>
<path id="primary" d="M9.41,12H10V8a1,1,0,0,1,1-1h2a1,1,0,0,1,1,1v4h.59a1,1,0,0,1,.7,1.71l-2.58,2.58a1,1,0,0,1-1.42,0L8.71,13.71A1,1,0,0,1,9.41,12ZM12,21a9,9,0,1,0-9-9A9,9,0,0,0,12,21Z" style="fill: none; stroke: #dc3545; stroke-linecap: round; stroke-linejoin: round; stroke-width:0.00024000000000000003;"/>
</g>
</svg>