<?xml version="1.0" encoding="UTF-8"?>
<svg xmlns="http://www.w3.org/2000/svg" xmlns:xlink="http://www.w3.org/1999/xlink" width="99px" height="99px" viewBox="0 0 99 99" version="1.1">
<g id="surface1">
<path style=" stroke:none;fill-rule:nonzero;fill:rgb(28.235295%,28.235295%,28.235295%);fill-opacity:1;" d="M 5.453125 -0.0742188 C 5.609375 -0.0742188 5.765625 -0.0742188 5.921875 -0.078125 C 6.441406 -0.078125 6.960938 -0.078125 7.480469 -0.078125 C 7.859375 -0.078125 8.234375 -0.078125 8.609375 -0.078125 C 9.644531 -0.0820312 10.679688 -0.0820312 11.710938 -0.0820312 C 12.828125 -0.0820312 13.941406 -0.0820312 15.058594 -0.0859375 C 17.242188 -0.0898438 19.425781 -0.0898438 21.609375 -0.0898438 C 23.386719 -0.0898438 25.160156 -0.0898438 26.9375 -0.09375 C 27.445312 -0.09375 27.957031 -0.09375 28.46875 -0.09375 C 28.722656 -0.09375 28.976562 -0.09375 29.242188 -0.09375 C 32.6875 -0.0976562 36.132812 -0.0976562 39.578125 -0.0976562 C 39.710938 -0.0976562 39.847656 -0.0976562 39.984375 -0.0976562 C 40.667969 -0.0976562 41.351562 -0.0976562 42.035156 -0.0976562 C 42.167969 -0.0976562 42.304688 -0.0976562 42.445312 -0.0976562 C 42.71875 -0.0976562 42.992188 -0.0976562 43.265625 -0.0976562 C 47.535156 -0.09375 51.800781 -0.0976562 56.070312 -0.105469 C 60.863281 -0.113281 65.65625 -0.117188 70.453125 -0.113281 C 72.992188 -0.113281 75.527344 -0.113281 78.066406 -0.121094 C 80.230469 -0.125 82.390625 -0.125 84.550781 -0.121094 C 85.652344 -0.121094 86.757812 -0.117188 87.859375 -0.125 C 88.867188 -0.125 89.878906 -0.125 90.886719 -0.121094 C 91.253906 -0.121094 91.617188 -0.121094 91.984375 -0.125 C 95.875 -0.148438 95.875 -0.148438 97.476562 1.351562 C 98.980469 2.914062 99.085938 4.347656 99.070312 6.4375 C 99.070312 6.699219 99.070312 6.960938 99.070312 7.222656 C 99.074219 7.945312 99.070312 8.664062 99.066406 9.382812 C 99.066406 10.171875 99.066406 10.960938 99.066406 11.75 C 99.066406 13.277344 99.0625 14.808594 99.058594 16.335938 C 99.054688 18.105469 99.054688 19.878906 99.054688 21.648438 C 99.050781 26.320312 99.042969 30.992188 99.035156 35.664062 C 99.023438 46.097656 99.011719 56.535156 99 67.289062 C 66.328125 67.289062 33.660156 67.289062 0 67.289062 C -0.0195312 56.863281 -0.0390625 46.441406 -0.0585938 35.699219 C -0.0703125 32.40625 -0.078125 29.113281 -0.0859375 25.71875 C -0.0898438 21.703125 -0.0898438 21.703125 -0.09375 19.820312 C -0.09375 18.507812 -0.0976562 17.191406 -0.101562 15.878906 C -0.109375 14.359375 -0.109375 12.84375 -0.109375 11.328125 C -0.109375 10.550781 -0.109375 9.777344 -0.117188 9 C -0.121094 8.300781 -0.121094 7.597656 -0.117188 6.894531 C -0.117188 6.523438 -0.121094 6.148438 -0.125 5.777344 C -0.109375 4.105469 0.191406 2.769531 1.351562 1.519531 C 2.578125 0.351562 3.773438 -0.0898438 5.453125 -0.0742188 Z M 4.386719 4.929688 C 4.246094 5.101562 4.246094 5.101562 4.097656 5.273438 C 3.710938 5.832031 3.648438 6.328125 3.644531 6.988281 C 3.640625 7.152344 3.640625 7.3125 3.640625 7.480469 C 3.636719 7.660156 3.636719 7.839844 3.636719 8.023438 C 3.636719 8.210938 3.632812 8.398438 3.632812 8.589844 C 3.625 9.214844 3.625 9.839844 3.621094 10.460938 C 3.621094 10.675781 3.617188 10.886719 3.617188 11.105469 C 3.613281 12.234375 3.609375 13.363281 3.605469 14.488281 C 3.601562 15.652344 3.59375 16.816406 3.585938 17.980469 C 3.578125 18.875 3.574219 19.773438 3.574219 20.667969 C 3.574219 21.097656 3.570312 21.523438 3.566406 21.953125 C 3.558594 22.554688 3.558594 23.15625 3.5625 23.757812 C 3.558594 23.933594 3.554688 24.109375 3.550781 24.292969 C 3.5625 25.503906 3.855469 26.328125 4.640625 27.265625 C 5.625 28.046875 6.359375 28.253906 7.59375 28.253906 C 7.796875 28.253906 8.003906 28.253906 8.214844 28.253906 C 8.554688 28.253906 8.554688 28.253906 8.898438 28.253906 C 9.136719 28.253906 9.375 28.253906 9.617188 28.253906 C 10.269531 28.253906 10.921875 28.25 11.574219 28.25 C 12.253906 28.25 12.933594 28.25 13.613281 28.25 C 14.902344 28.246094 16.191406 28.246094 17.480469 28.246094 C 18.949219 28.242188 20.414062 28.242188 21.882812 28.238281 C 24.902344 28.238281 27.917969 28.234375 30.9375 28.230469 C 30.898438 28.375 30.855469 28.519531 30.816406 28.671875 C 30.761719 28.863281 30.710938 29.054688 30.65625 29.25 C 30.601562 29.4375 30.550781 29.628906 30.496094 29.824219 C 29.730469 32.75 29.988281 36.207031 30.9375 39.058594 C 30.808594 39.058594 30.683594 39.058594 30.550781 39.054688 C 27.449219 39.039062 24.34375 39.027344 21.242188 39.019531 C 19.742188 39.015625 18.238281 39.007812 16.738281 39 C 15.429688 38.992188 14.121094 38.988281 12.8125 38.984375 C 12.121094 38.984375 11.429688 38.980469 10.734375 38.976562 C 9.960938 38.96875 9.1875 38.96875 8.414062 38.972656 C 8.1875 38.96875 7.957031 38.964844 7.722656 38.960938 C 6.269531 38.96875 5.566406 39.121094 4.515625 40.140625 C 3.917969 40.894531 3.652344 41.417969 3.644531 42.371094 C 3.640625 42.535156 3.640625 42.695312 3.636719 42.863281 C 3.636719 43.042969 3.632812 43.21875 3.632812 43.402344 C 3.632812 43.589844 3.628906 43.777344 3.628906 43.972656 C 3.621094 44.59375 3.617188 45.21875 3.613281 45.839844 C 3.613281 46.050781 3.613281 46.265625 3.609375 46.484375 C 3.605469 47.609375 3.597656 48.738281 3.59375 49.863281 C 3.59375 50.796875 3.585938 51.726562 3.574219 52.660156 C 3.5625 53.785156 3.558594 54.910156 3.554688 56.035156 C 3.554688 56.460938 3.550781 56.890625 3.546875 57.320312 C 3.539062 57.917969 3.539062 58.519531 3.539062 59.121094 C 3.535156 59.296875 3.53125 59.472656 3.527344 59.652344 C 3.542969 60.972656 3.960938 61.851562 4.835938 62.84375 C 5.929688 63.542969 6.914062 63.644531 8.191406 63.640625 C 8.335938 63.640625 8.484375 63.640625 8.632812 63.640625 C 9.121094 63.644531 9.605469 63.644531 10.09375 63.640625 C 10.445312 63.644531 10.800781 63.644531 11.152344 63.644531 C 12.121094 63.644531 13.089844 63.644531 14.058594 63.644531 C 15.105469 63.648438 16.148438 63.648438 17.195312 63.648438 C 19.480469 63.652344 21.765625 63.652344 24.054688 63.652344 C 25.480469 63.65625 26.90625 63.65625 28.332031 63.65625 C 32.28125 63.660156 36.230469 63.660156 40.179688 63.660156 C 40.558594 63.660156 40.558594 63.660156 40.945312 63.660156 C 41.199219 63.660156 41.453125 63.660156 41.714844 63.660156 C 42.226562 63.660156 42.742188 63.660156 43.253906 63.660156 C 43.511719 63.660156 43.765625 63.660156 44.027344 63.660156 C 48.15625 63.664062 52.285156 63.664062 56.414062 63.671875 C 60.652344 63.675781 64.886719 63.675781 69.125 63.675781 C 71.503906 63.679688 73.886719 63.679688 76.265625 63.683594 C 78.292969 63.683594 80.316406 63.6875 82.34375 63.683594 C 83.378906 63.683594 84.410156 63.683594 85.445312 63.6875 C 86.390625 63.691406 87.339844 63.6875 88.285156 63.6875 C 88.628906 63.6875 88.96875 63.6875 89.3125 63.6875 C 89.777344 63.691406 90.242188 63.691406 90.710938 63.6875 C 90.84375 63.6875 90.976562 63.691406 91.113281 63.691406 C 92.347656 63.679688 93.371094 63.371094 94.324219 62.589844 C 95.277344 61.414062 95.410156 60.480469 95.402344 59.019531 C 95.402344 58.832031 95.402344 58.644531 95.402344 58.453125 C 95.40625 57.835938 95.40625 57.222656 95.402344 56.605469 C 95.402344 56.175781 95.402344 55.746094 95.40625 55.320312 C 95.40625 54.421875 95.40625 53.523438 95.402344 52.625 C 95.398438 51.472656 95.402344 50.320312 95.402344 49.171875 C 95.40625 48.285156 95.40625 47.398438 95.402344 46.511719 C 95.402344 46.089844 95.402344 45.664062 95.40625 45.242188 C 95.40625 44.648438 95.40625 44.054688 95.402344 43.460938 C 95.402344 43.199219 95.402344 43.199219 95.40625 42.929688 C 95.394531 41.777344 95.226562 40.921875 94.40625 40.050781 C 94.292969 39.960938 94.175781 39.867188 94.058594 39.773438 C 93.941406 39.675781 93.824219 39.582031 93.707031 39.484375 C 93.117188 39.046875 92.734375 39.035156 92.011719 39.035156 C 91.800781 39.035156 91.589844 39.035156 91.375 39.035156 C 91.027344 39.035156 91.027344 39.035156 90.671875 39.035156 C 90.429688 39.035156 90.183594 39.035156 89.933594 39.035156 C 89.265625 39.035156 88.597656 39.039062 87.929688 39.039062 C 87.230469 39.039062 86.535156 39.039062 85.835938 39.039062 C 84.511719 39.042969 83.191406 39.042969 81.867188 39.042969 C 80.363281 39.046875 78.859375 39.046875 77.351562 39.050781 C 74.257812 39.050781 71.160156 39.054688 68.0625 39.058594 C 68.101562 38.914062 68.144531 38.769531 68.183594 38.621094 C 68.238281 38.429688 68.289062 38.242188 68.34375 38.046875 C 68.398438 37.855469 68.449219 37.667969 68.503906 37.476562 C 69.183594 34.824219 69.316406 30.738281 68.0625 28.230469 C 68.1875 28.230469 68.3125 28.230469 68.4375 28.230469 C 71.464844 28.246094 74.496094 28.253906 77.523438 28.261719 C 78.988281 28.261719 80.449219 28.269531 81.914062 28.273438 C 83.191406 28.28125 84.46875 28.285156 85.742188 28.285156 C 86.417969 28.285156 87.09375 28.289062 87.769531 28.292969 C 88.527344 28.296875 89.28125 28.296875 90.035156 28.296875 C 90.257812 28.296875 90.480469 28.300781 90.710938 28.300781 C 92.347656 28.296875 93.53125 28.058594 94.746094 26.875 C 95.402344 25.855469 95.410156 24.984375 95.402344 23.8125 C 95.402344 23.621094 95.402344 23.433594 95.402344 23.238281 C 95.40625 22.617188 95.40625 21.996094 95.402344 21.371094 C 95.402344 20.9375 95.402344 20.503906 95.40625 20.070312 C 95.40625 19.164062 95.40625 18.257812 95.402344 17.347656 C 95.398438 16.1875 95.402344 15.023438 95.402344 13.863281 C 95.40625 12.96875 95.40625 12.070312 95.402344 11.175781 C 95.402344 10.75 95.402344 10.320312 95.40625 9.890625 C 95.40625 9.292969 95.40625 8.691406 95.402344 8.09375 C 95.402344 7.828125 95.402344 7.828125 95.40625 7.558594 C 95.394531 6.402344 95.226562 5.550781 94.414062 4.667969 C 94.300781 4.574219 94.1875 4.480469 94.070312 4.386719 C 93.957031 4.292969 93.84375 4.195312 93.726562 4.097656 C 92.996094 3.589844 92.242188 3.644531 91.390625 3.648438 C 91.246094 3.648438 91.097656 3.648438 90.949219 3.648438 C 90.453125 3.644531 89.957031 3.644531 89.460938 3.648438 C 89.105469 3.644531 88.746094 3.644531 88.390625 3.644531 C 87.40625 3.644531 86.421875 3.644531 85.4375 3.644531 C 84.378906 3.640625 83.320312 3.640625 82.257812 3.640625 C 79.9375 3.636719 77.621094 3.636719 75.300781 3.636719 C 73.851562 3.632812 72.40625 3.632812 70.957031 3.632812 C 66.953125 3.628906 62.945312 3.628906 58.941406 3.628906 C 58.683594 3.628906 58.421875 3.628906 58.164062 3.628906 C 57.90625 3.628906 57.644531 3.628906 57.386719 3.628906 C 56.863281 3.628906 56.34375 3.628906 55.824219 3.628906 C 55.691406 3.628906 55.5625 3.628906 55.429688 3.628906 C 51.242188 3.625 47.050781 3.625 42.863281 3.617188 C 38.433594 3.613281 34.007812 3.613281 29.578125 3.613281 C 27.164062 3.609375 24.75 3.609375 22.335938 3.605469 C 20.28125 3.605469 18.222656 3.601562 16.167969 3.605469 C 15.117188 3.605469 14.070312 3.605469 13.019531 3.601562 C 12.0625 3.601562 11.101562 3.601562 10.140625 3.601562 C 9.792969 3.601562 9.445312 3.601562 9.097656 3.601562 C 8.625 3.597656 8.152344 3.597656 7.679688 3.601562 C 7.546875 3.601562 7.410156 3.597656 7.269531 3.597656 C 6.058594 3.609375 5.15625 3.988281 4.386719 4.929688 Z M 4.386719 4.929688 "/>
<path style=" stroke:none;fill-rule:nonzero;fill:rgb(47.843137%,0.784314%,3.137255%);fill-opacity:1;" d="M 6.960938 6.960938 C 35.035156 6.960938 63.113281 6.960938 92.039062 6.960938 C 92.039062 12.832031 92.039062 18.703125 92.039062 24.75 C 85.691406 24.84375 85.691406 24.84375 83.03125 24.863281 C 81.195312 24.878906 79.359375 24.894531 77.523438 24.925781 C 76.183594 24.949219 74.847656 24.964844 73.507812 24.96875 C 72.800781 24.972656 72.09375 24.976562 71.386719 24.996094 C 70.59375 25.015625 69.804688 25.015625 69.011719 25.011719 C 68.777344 25.023438 68.542969 25.03125 68.304688 25.039062 C 67.632812 25.027344 67.140625 25 66.515625 24.75 C 65.90625 24.039062 65.542969 23.277344 65.164062 22.429688 C 62.199219 18.210938 57.664062 15.535156 52.625 14.59375 C 49.675781 14.15625 46.523438 14.324219 43.699219 15.273438 C 43.574219 15.316406 43.449219 15.359375 43.320312 15.402344 C 38.628906 17.011719 34.707031 20.304688 32.484375 24.75 C 24.0625 24.75 15.640625 24.75 6.960938 24.75 C 6.960938 18.878906 6.960938 13.007812 6.960938 6.960938 Z M 6.960938 6.960938 "/>
<path style=" stroke:none;fill-rule:nonzero;fill:rgb(47.843137%,0.784314%,3.137255%);fill-opacity:1;" d="M 6.960938 42.34375 C 13.234375 42.230469 13.234375 42.230469 15.871094 42.203125 C 17.6875 42.1875 19.503906 42.167969 21.324219 42.125 C 22.648438 42.097656 23.96875 42.078125 25.292969 42.074219 C 25.996094 42.070312 26.695312 42.058594 27.394531 42.039062 C 31.65625 41.914062 31.65625 41.914062 32.707031 42.628906 C 33.355469 43.292969 33.722656 44.035156 34.0625 44.894531 C 34.472656 45.789062 35.285156 46.480469 35.964844 47.179688 C 36.066406 47.296875 36.167969 47.410156 36.273438 47.53125 C 39.367188 50.933594 44.292969 52.542969 48.765625 52.828125 C 53.757812 52.898438 58.523438 51.300781 62.261719 47.953125 C 62.519531 47.722656 62.519531 47.722656 62.785156 47.484375 C 64.230469 46.117188 65.269531 44.605469 66.320312 42.925781 C 66.449219 42.734375 66.578125 42.542969 66.710938 42.34375 C 67.152344 42.273438 67.152344 42.273438 67.71875 42.277344 C 67.929688 42.273438 68.144531 42.273438 68.363281 42.273438 C 68.601562 42.277344 68.835938 42.277344 69.078125 42.28125 C 69.324219 42.28125 69.570312 42.28125 69.828125 42.28125 C 70.503906 42.28125 71.183594 42.28125 71.863281 42.285156 C 72.570312 42.289062 73.28125 42.289062 73.988281 42.292969 C 75.332031 42.292969 76.675781 42.296875 78.019531 42.304688 C 79.832031 42.3125 81.648438 42.316406 83.460938 42.316406 C 86.320312 42.324219 89.179688 42.335938 92.039062 42.34375 C 92.039062 48.214844 92.039062 54.085938 92.039062 60.132812 C 63.964844 60.132812 35.886719 60.132812 6.960938 60.132812 C 6.960938 54.265625 6.960938 48.394531 6.960938 42.34375 Z M 6.960938 42.34375 "/>
<path style=" stroke:none;fill-rule:nonzero;fill:rgb(28.235295%,28.235295%,28.235295%);fill-opacity:1;" d="M 0 70.578125 C 32.671875 70.578125 65.339844 70.578125 99 70.578125 C 99 74.421875 99 74.421875 98.226562 75.601562 C 98.058594 75.867188 98.058594 75.867188 97.886719 76.136719 C 96.640625 77.382812 95.179688 77.960938 93.410156 77.976562 C 93.199219 77.976562 93.199219 77.976562 92.984375 77.972656 C 92.832031 77.972656 92.679688 77.976562 92.519531 77.976562 C 92.007812 77.976562 91.496094 77.976562 90.984375 77.976562 C 90.613281 77.976562 90.242188 77.976562 89.871094 77.976562 C 88.847656 77.980469 87.828125 77.980469 86.808594 77.980469 C 85.707031 77.980469 84.609375 77.980469 83.507812 77.984375 C 81.351562 77.988281 79.195312 77.988281 77.039062 77.988281 C 75.289062 77.988281 73.535156 77.988281 71.785156 77.992188 C 67.625 77.992188 63.464844 77.996094 59.308594 77.996094 C 59.175781 77.996094 59.039062 77.996094 58.902344 77.996094 C 58.230469 77.996094 57.554688 77.996094 56.882812 77.996094 C 56.679688 77.996094 56.679688 77.996094 56.476562 77.996094 C 56.207031 77.996094 55.933594 77.996094 55.664062 77.996094 C 51.453125 77.996094 47.242188 78 43.03125 78.003906 C 38.296875 78.007812 33.566406 78.011719 28.832031 78.011719 C 26.328125 78.011719 23.824219 78.011719 21.316406 78.015625 C 19.183594 78.019531 17.050781 78.023438 14.917969 78.019531 C 13.832031 78.019531 12.742188 78.019531 11.65625 78.019531 C 10.65625 78.023438 9.660156 78.023438 8.664062 78.019531 C 8.304688 78.019531 7.945312 78.019531 7.585938 78.023438 C 5.46875 78.035156 3.449219 78.039062 1.667969 76.714844 C -0.191406 74.765625 0 73.460938 0 70.578125 Z M 48.339844 73.089844 C 47.941406 73.519531 47.941406 73.519531 47.757812 74.054688 C 47.90625 74.792969 48.101562 75.355469 48.726562 75.796875 C 49.339844 76.023438 49.59375 76.03125 50.199219 75.773438 C 50.726562 75.355469 50.992188 75.070312 51.242188 74.445312 C 51.09375 73.707031 50.898438 73.144531 50.273438 72.703125 C 49.4375 72.394531 49.03125 72.546875 48.339844 73.089844 Z M 48.339844 73.089844 "/>
<path style=" stroke:none;fill-rule:nonzero;fill:rgb(47.843137%,0.784314%,3.137255%);fill-opacity:1;" d="M 58.976562 20.496094 C 62.554688 23.390625 64.785156 26.976562 65.5 31.542969 C 65.8125 36.390625 64.617188 40.769531 61.414062 44.527344 C 58.390625 47.667969 54.523438 49.46875 50.160156 49.589844 C 45.882812 49.628906 42.066406 48.585938 38.867188 45.632812 C 38.601562 45.394531 38.601562 45.394531 38.328125 45.152344 C 35.375 42.359375 33.640625 38.492188 33.421875 34.429688 C 33.300781 29.886719 34.722656 25.820312 37.851562 22.484375 C 43.398438 16.746094 52.402344 15.925781 58.976562 20.496094 Z M 46.601562 25.328125 C 45.902344 26.058594 45.699219 26.992188 45.414062 27.933594 C 45.332031 28.203125 45.332031 28.203125 45.246094 28.472656 C 45.128906 28.847656 45.015625 29.222656 44.902344 29.601562 C 44.726562 30.175781 44.550781 30.75 44.371094 31.324219 C 44.257812 31.6875 44.148438 32.054688 44.035156 32.417969 C 43.980469 32.589844 43.929688 32.761719 43.875 32.941406 C 43.824219 33.101562 43.777344 33.261719 43.726562 33.425781 C 43.683594 33.566406 43.640625 33.707031 43.597656 33.851562 C 43.484375 34.253906 43.484375 34.253906 43.507812 34.804688 C 43.378906 34.804688 43.25 34.804688 43.117188 34.804688 C 43.078125 34.554688 43.035156 34.308594 42.988281 34.050781 C 42.707031 32.640625 42.277344 31.273438 41.847656 29.898438 C 41.703125 29.4375 41.566406 28.976562 41.425781 28.515625 C 41.335938 28.222656 41.242188 27.925781 41.152344 27.628906 C 41.089844 27.425781 41.089844 27.425781 41.03125 27.21875 C 40.726562 26.273438 40.328125 25.660156 39.640625 24.945312 C 39.046875 24.738281 38.734375 24.839844 38.09375 24.945312 C 37.574219 25.199219 37.574219 25.199219 37.320312 25.71875 C 37.253906 26.800781 37.375 27.640625 37.699219 28.683594 C 37.742188 28.816406 37.78125 28.949219 37.824219 29.085938 C 37.957031 29.519531 38.09375 29.953125 38.226562 30.382812 C 38.324219 30.6875 38.417969 30.992188 38.511719 31.292969 C 38.707031 31.925781 38.90625 32.558594 39.105469 33.191406 C 39.359375 34.003906 39.609375 34.8125 39.859375 35.621094 C 40.054688 36.25 40.25 36.875 40.445312 37.5 C 40.539062 37.796875 40.628906 38.097656 40.722656 38.394531 C 40.851562 38.8125 40.984375 39.230469 41.117188 39.648438 C 41.191406 39.882812 41.265625 40.121094 41.339844 40.363281 C 41.609375 41.097656 41.871094 41.746094 42.503906 42.226562 C 43.101562 42.394531 43.488281 42.328125 44.085938 42.152344 C 45.003906 41.484375 45.191406 40.535156 45.5 39.492188 C 45.632812 39.0625 45.765625 38.632812 45.894531 38.203125 C 45.933594 38.082031 45.96875 37.960938 46.007812 37.835938 C 46.316406 36.832031 46.632812 35.832031 46.953125 34.832031 C 47.222656 34 47.488281 33.164062 47.75 32.332031 C 47.886719 31.910156 48.019531 31.492188 48.15625 31.070312 C 48.347656 30.472656 48.539062 29.875 48.726562 29.273438 C 48.785156 29.09375 48.84375 28.914062 48.902344 28.730469 C 49.230469 27.6875 49.398438 26.8125 49.304688 25.71875 C 48.933594 25.179688 48.667969 24.996094 48.0625 24.761719 C 47.402344 24.746094 47.121094 24.933594 46.601562 25.328125 Z M 52.839844 26.421875 C 51.632812 27.742188 51.304688 28.910156 51.355469 30.6875 C 51.550781 32.257812 52.332031 33.371094 53.554688 34.339844 C 54.464844 34.96875 55.324219 35.203125 56.402344 35.371094 C 57.027344 35.480469 57.398438 35.5625 57.949219 35.890625 C 58.320312 36.5625 58.351562 37.148438 58.203125 37.898438 C 57.808594 38.484375 57.539062 38.636719 56.871094 38.851562 C 55.910156 38.871094 55.308594 38.417969 54.527344 37.898438 C 53.71875 37.914062 53.3125 37.96875 52.703125 38.515625 C 52.34375 39.164062 52.277344 39.488281 52.398438 40.21875 C 52.996094 41.28125 54.160156 41.921875 55.304688 42.273438 C 56.953125 42.589844 58.335938 42.207031 59.75 41.332031 C 60.917969 40.441406 61.570312 39.269531 61.773438 37.820312 C 61.84375 36.105469 61.539062 34.804688 60.417969 33.488281 C 59.179688 32.308594 57.566406 31.863281 55.90625 31.652344 C 55.359375 31.472656 55.199219 31.234375 54.914062 30.742188 C 54.789062 29.894531 54.816406 29.53125 55.3125 28.824219 C 56.035156 28.316406 56.367188 28.289062 57.234375 28.421875 C 57.574219 28.605469 57.574219 28.605469 57.910156 28.824219 C 58.460938 29.167969 58.605469 29.199219 59.300781 29.210938 C 60.082031 28.957031 60.335938 28.761719 60.714844 28.039062 C 60.808594 27.363281 60.808594 27.363281 60.523438 26.683594 C 59.503906 25.515625 58.425781 24.914062 56.882812 24.757812 C 55.304688 24.730469 53.972656 25.347656 52.839844 26.421875 Z M 52.839844 26.421875 "/>
<path style=" stroke:none;fill-rule:nonzero;fill:rgb(28.235295%,28.235295%,28.235295%);fill-opacity:1;" d="M 38.660156 81.1875 C 38.824219 81.1875 38.988281 81.1875 39.160156 81.1875 C 39.445312 81.1875 39.445312 81.1875 39.734375 81.1875 C 39.941406 81.1875 40.152344 81.1875 40.367188 81.1875 C 40.695312 81.1875 40.695312 81.1875 41.027344 81.1875 C 41.757812 81.1875 42.484375 81.191406 43.210938 81.191406 C 43.714844 81.191406 44.214844 81.191406 44.71875 81.191406 C 45.910156 81.195312 47.097656 81.195312 48.289062 81.195312 C 49.644531 81.199219 51 81.199219 52.351562 81.203125 C 55.140625 81.203125 57.925781 81.207031 60.714844 81.210938 C 61.316406 82.640625 61.902344 84.074219 62.453125 85.519531 C 62.554688 85.785156 62.554688 85.785156 62.65625 86.054688 C 62.796875 86.421875 62.9375 86.789062 63.078125 87.15625 C 63.292969 87.71875 63.507812 88.28125 63.722656 88.84375 C 63.859375 89.203125 63.996094 89.5625 64.132812 89.917969 C 64.195312 90.089844 64.261719 90.257812 64.328125 90.429688 C 64.386719 90.585938 64.445312 90.738281 64.507812 90.898438 C 64.558594 91.035156 64.609375 91.171875 64.664062 91.3125 C 64.773438 91.652344 64.773438 91.652344 64.773438 92.039062 C 54.695312 92.039062 44.613281 92.039062 34.226562 92.039062 C 34.878906 89.863281 34.878906 89.863281 35.167969 89.089844 C 35.234375 88.917969 35.300781 88.742188 35.367188 88.566406 C 35.433594 88.386719 35.503906 88.207031 35.574219 88.019531 C 35.644531 87.832031 35.71875 87.640625 35.789062 87.445312 C 35.941406 87.046875 36.089844 86.648438 36.242188 86.253906 C 36.472656 85.640625 36.703125 85.03125 36.933594 84.421875 C 37.082031 84.03125 37.226562 83.644531 37.375 83.257812 C 37.476562 82.984375 37.476562 82.984375 37.582031 82.703125 C 37.648438 82.535156 37.710938 82.367188 37.777344 82.195312 C 37.863281 81.972656 37.863281 81.972656 37.949219 81.746094 C 38.171875 81.21875 38.171875 81.21875 38.660156 81.1875 Z M 38.660156 81.1875 "/>
<path style=" stroke:none;fill-rule:nonzero;fill:rgb(28.235295%,28.235295%,28.235295%);fill-opacity:1;" d="M 25.054688 95.253906 C 25.230469 95.25 25.40625 95.25 25.589844 95.246094 C 25.882812 95.25 25.882812 95.25 26.179688 95.25 C 26.386719 95.25 26.589844 95.246094 26.804688 95.246094 C 27.5 95.242188 28.195312 95.242188 28.890625 95.246094 C 29.386719 95.242188 29.882812 95.242188 30.382812 95.238281 C 31.59375 95.234375 32.804688 95.234375 34.019531 95.234375 C 35.003906 95.234375 35.988281 95.234375 36.972656 95.234375 C 37.257812 95.234375 37.542969 95.234375 37.824219 95.230469 C 37.964844 95.230469 38.105469 95.230469 38.253906 95.230469 C 40.921875 95.226562 43.59375 95.226562 46.265625 95.230469 C 48.710938 95.230469 51.152344 95.226562 53.597656 95.21875 C 56.105469 95.214844 58.613281 95.210938 61.125 95.210938 C 62.53125 95.210938 63.941406 95.210938 65.347656 95.207031 C 66.671875 95.203125 68 95.203125 69.324219 95.207031 C 69.808594 95.207031 70.296875 95.207031 70.78125 95.203125 C 71.445312 95.199219 72.109375 95.203125 72.773438 95.207031 C 72.964844 95.203125 73.160156 95.199219 73.359375 95.199219 C 74.214844 95.210938 74.835938 95.234375 75.527344 95.773438 C 76.105469 96.421875 76.199219 96.785156 76.183594 97.648438 C 75.875 98.335938 75.660156 98.578125 75.023438 99 C 74.625 99.050781 74.625 99.050781 74.15625 99.050781 C 73.890625 99.050781 73.890625 99.050781 73.617188 99.054688 C 73.421875 99.054688 73.222656 99.050781 73.023438 99.050781 C 72.710938 99.054688 72.710938 99.054688 72.390625 99.054688 C 71.691406 99.058594 70.988281 99.054688 70.285156 99.054688 C 69.785156 99.058594 69.285156 99.058594 68.78125 99.058594 C 67.558594 99.0625 66.335938 99.0625 65.113281 99.066406 C 64.121094 99.066406 63.125 99.066406 62.132812 99.066406 C 59.316406 99.070312 56.5 99.070312 53.683594 99.070312 C 53.53125 99.070312 53.378906 99.070312 53.222656 99.070312 C 53.070312 99.070312 52.917969 99.070312 52.761719 99.070312 C 50.296875 99.070312 47.832031 99.074219 45.367188 99.082031 C 42.835938 99.085938 40.308594 99.089844 37.777344 99.089844 C 36.355469 99.089844 34.9375 99.089844 33.515625 99.09375 C 32.179688 99.097656 30.84375 99.097656 29.507812 99.09375 C 29.015625 99.09375 28.523438 99.09375 28.035156 99.097656 C 27.363281 99.101562 26.695312 99.097656 26.027344 99.09375 C 25.832031 99.097656 25.636719 99.097656 25.433594 99.101562 C 24.601562 99.09375 24.109375 99.078125 23.378906 98.648438 C 22.863281 98.058594 22.816406 97.648438 22.816406 96.875 C 23.261719 95.835938 23.910156 95.253906 25.054688 95.253906 Z M 25.054688 95.253906 "/>
</g>
</svg>
