<svg xmlns="http://www.w3.org/2000/svg" width="99" height="99" fill="none"><path fill="#484848" d="m5.567.056.47-.003C6.554.05 7.072.052 7.59.053c.376 0 .751-.002 1.127-.003C9.75.047 10.781.047 11.813.048a3234.615 3234.615 0 0 1 9.878-.01 5586.984 5586.984 0 0 0 7.616-.003C32.746.032 36.184.031 39.623.032h3.683c4.259.002 8.517 0 12.776-.007 4.785-.007 9.57-.01 14.355-.01 2.534 0 5.067 0 7.6-.005 2.157-.004 4.314-.005 6.471-.001 1.1.001 2.2.002 3.301-.002a380.8 380.8 0 0 1 3.023.001c.365.001.729 0 1.093-.002C95.81-.02 95.81-.02 97.408 1.478c1.5 1.558 1.605 2.988 1.59 5.074a368.306 368.306 0 0 1-.002 2.939c-.003.786-.002 1.573-.002 2.36 0 1.525-.002 3.052-.006 4.578-.004 1.766-.004 3.531-.005 5.297-.003 4.66-.01 9.322-.018 13.983l-.037 31.553H.126l-.06-31.517c-.01-3.286-.018-6.571-.027-9.957l-.006-5.883c0-1.311-.004-2.623-.01-3.935a917.349 917.349 0 0 1-.007-4.539c0-.774 0-1.547-.005-2.321-.005-.7-.005-1.401-.002-2.102 0-.372-.004-.743-.008-1.115.014-1.666.315-3 1.473-4.248C2.698.48 3.89.04 5.567.055ZM4.503 5.049l-.288.343c-.388.557-.449 1.05-.454 1.71l-.005.492-.002.538-.005.569c-.005.622-.008 1.244-.01 1.866l-.004.644c-.005 1.125-.009 2.25-.011 3.375-.004 1.16-.012 2.321-.022 3.482-.007.894-.009 1.787-.01 2.68-.001.429-.004.857-.009 1.284-.006.6-.006 1.2-.004 1.8l-.01.532c.012 1.212.302 2.032 1.087 2.965.983.783 1.714.99 2.946.988l.623.001.68-.002h.72l1.949-.002c.68-.002 1.359-.002 2.038-.002 1.286 0 2.573-.002 3.859-.004l4.393-.004c3.012-.002 6.025-.006 9.037-.01l-.122.44-.16.577-.158.573c-.763 2.918-.51 6.367.44 9.213l-.386-.002c-3.097-.017-6.194-.03-9.291-.038-1.498-.004-2.996-.01-4.494-.018a866.804 866.804 0 0 0-3.917-.015c-.691 0-1.382-.003-2.074-.009-.771-.006-1.543-.006-2.316-.006l-.692-.008c-1.45.007-2.153.16-3.2 1.176-.598.75-.862 1.273-.87 2.225l-.007.492-.003.538-.006.567c-.006.621-.01 1.242-.013 1.863l-.004.643c-.007 1.124-.011 2.248-.015 3.372-.003.93-.01 1.859-.02 2.788a387.387 387.387 0 0 0-.02 3.368c0 .427-.005.854-.01 1.281-.008.6-.008 1.199-.006 1.798l-.012.53c.015 1.317.432 2.195 1.304 3.183 1.095.7 2.078.8 3.352.797h.438a1852.238 1852.238 0 0 1 2.514.002c.968.003 1.936.003 2.904.003l3.129.003a9184.923 9184.923 0 0 0 11.116.007 29124.983 29124.983 0 0 0 12.588.005h3.074c4.121.002 8.242.005 12.363.01 4.229.004 8.457.006 12.686.007 2.375 0 4.75 0 7.125.004 2.022.003 4.045.004 6.067.003 1.032-.001 2.064 0 3.096.002.945.002 1.89.002 2.834 0 .342 0 .683 0 1.025.002.465.002.93 0 1.394-.002l.402.005c1.233-.014 2.255-.32 3.205-1.102.953-1.17 1.086-2.102 1.076-3.56l.003-.564c.002-.615 0-1.23-.001-1.844 0-.428 0-.856.002-1.284 0-.896 0-1.793-.004-2.69a581.57 581.57 0 0 1 .002-3.444c.003-.883.002-1.767 0-2.65 0-.424 0-.847.002-1.27.001-.593 0-1.184-.004-1.776l.003-.529c-.011-1.15-.177-2.002-.995-2.872l-.35-.28c-.115-.094-.23-.19-.35-.287-.587-.434-.969-.448-1.69-.447l-.637-.001-.7.002h-.737l-2 .002c-.697.002-1.394.002-2.09.002-1.32 0-2.64.002-3.96.004l-4.507.004c-3.09.002-6.181.006-9.272.01l.122-.436.16-.575.158-.57c.68-2.645.81-6.722-.44-9.222l.376.002c3.022.012 6.044.022 9.065.028 1.461.003 2.923.007 4.384.014 1.274.005 2.548.01 3.822.01.674.001 1.348.003 2.022.007.754.005 1.507.005 2.26.005l.675.006c1.632-.006 2.814-.244 4.027-1.422.654-1.02.662-1.888.654-3.06l.003-.57c.002-.62 0-1.241-.001-1.862 0-.433 0-.865.002-1.297 0-.906 0-1.811-.004-2.717-.003-1.16-.001-2.32.002-3.48.003-.892.002-1.785 0-2.677 0-.428 0-.856.002-1.283.001-.598 0-1.196-.004-1.794l.003-.534c-.011-1.154-.176-2.004-.989-2.884l-.343-.28-.344-.287c-.729-.508-1.48-.452-2.329-.45h-.443a2379.87 2379.87 0 0 1-2.551-.002c-.983-.003-1.965-.003-2.947-.003L82.22 3.76a9031.628 9031.628 0 0 0-11.279-.007L58.95 3.749h-3.503c-4.182-.001-8.363-.004-12.544-.009-4.42-.005-8.839-.007-13.258-.008-2.41 0-4.82 0-7.229-.004-2.051-.003-4.103-.004-6.154-.003-1.047.001-2.094 0-3.142-.002-.958-.002-1.916-.002-2.874 0-.347 0-.694 0-1.041-.002-.471-.002-.942 0-1.413.002l-.41-.004c-1.212.012-2.112.388-2.878 1.33Z"/><path fill="#484848" d="M7.072 7.074h84.91v17.748c-6.334.093-6.334.093-8.99.113-1.833.014-3.666.03-5.498.061-1.335.024-2.67.038-4.005.044-.707.003-1.414.01-2.12.027-.79.018-1.579.019-2.369.017l-.707.026c-.67-.01-1.16-.04-1.785-.288-.607-.709-.97-1.469-1.35-2.315-2.958-4.21-7.485-6.877-12.514-7.82-2.94-.434-6.087-.268-8.907.682l-.377.126c-4.684 1.605-8.596 4.89-10.815 9.327H7.072V7.074ZM7.072 42.376c6.262-.116 6.262-.116 8.892-.14 1.814-.018 3.627-.038 5.441-.078 1.322-.029 2.642-.047 3.964-.054.7-.004 1.398-.012 2.097-.033 4.25-.124 4.25-.124 5.3.586.647.666 1.016 1.405 1.354 2.26.41.896 1.22 1.582 1.898 2.282l.307.35c3.09 3.395 8.004 5.001 12.47 5.284 4.98.073 9.735-1.521 13.468-4.862l.522-.467c1.444-1.365 2.481-2.874 3.53-4.549.128-.19.255-.382.386-.579.443-.07.443-.07 1.007-.07.213 0 .426 0 .646-.002l.712.007h.747c.678 0 1.355.003 2.032.007a1347.292 1347.292 0 0 1 6.143.017c1.811.007 3.622.01 5.433.014 2.853.005 5.707.017 8.56.027v17.748H7.071V42.376ZM.125 70.541h98.803c0 3.837 0 3.837-.771 5.016l-.338.53c-1.244 1.244-2.701 1.822-4.47 1.837l-.424-.003-.463.002c-.511.002-1.023.001-1.534 0l-1.112.003c-1.018.002-2.036.002-3.054.002a4628.813 4628.813 0 0 1-9.749.008l-5.246.002c-4.151.003-8.302.005-12.453.005H55.679c-4.203 0-8.406.003-12.61.008-4.722.006-9.445.01-14.168.009-2.5 0-5 0-7.5.005-2.13.004-4.258.004-6.387.002a752.807 752.807 0 0 0-3.258.002c-.995.003-1.99.002-2.984-.001-.36 0-.719 0-1.078.002-2.112.012-4.128.015-5.905-1.304C-.067 74.722.125 73.419.125 70.54Zm48.244 2.508c-.398.427-.398.427-.58.964.148.734.342 1.298.966 1.737.613.225.866.235 1.471-.025.525-.414.79-.702 1.037-1.326-.146-.733-.341-1.297-.965-1.736-.835-.308-1.24-.158-1.93.386Z"/><path fill="#484848" d="M58.982 20.578c3.574 2.888 5.798 6.464 6.513 11.02.313 4.836-.88 9.207-4.076 12.953-3.02 3.135-6.88 4.932-11.232 5.053-4.27.04-8.078-1-11.274-3.948l-.535-.48c-2.95-2.785-4.678-6.646-4.9-10.697-.118-4.531 1.3-8.59 4.422-11.919 5.536-5.722 14.522-6.544 21.082-1.982ZM46.632 25.4c-.696.728-.9 1.658-1.184 2.598l-.167.538-.344 1.123a1055.426 1055.426 0 0 0-.865 2.812l-.16.521-.147.484-.13.425c-.114.402-.114.402-.09.951h-.387l-.129-.75c-.283-1.41-.712-2.775-1.14-4.146-.142-.458-.28-.918-.419-1.377l-.275-.886-.122-.41c-.301-.943-.7-1.554-1.388-2.27-.59-.204-.902-.101-1.544 0-.515.258-.515.258-.772.772-.063 1.08.057 1.92.38 2.96l.123.402c.133.432.27.863.405 1.294l.282.908c.196.632.393 1.264.592 1.895.254.807.505 1.616.755 2.424a722.589 722.589 0 0 0 .861 2.766c.13.416.26.833.392 1.249l.225.717c.269.729.53 1.377 1.16 1.855.598.17.984.101 1.58-.072.915-.669 1.101-1.615 1.41-2.653a2737.254 2737.254 0 0 1 .508-1.654c.306-1.002.623-2 .943-2.996.267-.832.532-1.664.797-2.497l.402-1.255a318.9 318.9 0 0 0 .57-1.793l.178-.543c.325-1.042.493-1.914.402-3.007-.372-.536-.638-.72-1.243-.952-.658-.016-.94.17-1.46.567Zm6.228 1.087c-1.205 1.32-1.531 2.486-1.482 4.259.194 1.566.976 2.676 2.196 3.643.907.626 1.767.862 2.84 1.03.624.107.996.187 1.543.518.37.67.404 1.254.254 2.002-.39.585-.66.735-1.327.952-.96.02-1.562-.434-2.34-.953-.808.015-1.214.07-1.821.615-.36.648-.423.97-.302 1.7.594 1.059 1.757 1.699 2.9 2.05 1.643.314 3.026-.065 4.436-.94 1.164-.89 1.816-2.057 2.02-3.503.069-1.71-.235-3.008-1.355-4.32-1.236-1.178-2.846-1.622-4.502-1.835-.547-.176-.706-.413-.99-.904-.123-.848-.099-1.21.398-1.917.72-.506 1.051-.532 1.918-.398.339.182.339.182.675.398.548.345.691.374 1.387.386.78-.25 1.033-.445 1.411-1.17.093-.671.093-.671-.193-1.35-1.016-1.165-2.09-1.765-3.633-1.922-1.572-.028-2.904.589-4.033 1.659ZM38.707 81.127h1.072l.632.002h.661c.726 0 1.452.002 2.177.003l1.505.001c1.188 0 2.376.002 3.564.004l4.056.004c2.782.002 5.563.006 8.345.01.6 1.425 1.184 2.855 1.735 4.3l.203.532.419 1.098.645 1.686.41 1.072a1334.12 1334.12 0 0 0 .373.978l.157.413c.11.338.11.338.11.724h-30.49c.652-2.17.652-2.17.943-2.942l.197-.524.207-.544.216-.574.451-1.189.691-1.828.439-1.16.209-.553.193-.508.17-.448c.222-.526.222-.526.71-.557ZM25.128 95.16l.536-.006.587.003.625-.003c.694-.004 1.387-.003 2.081-.002l1.49-.005c1.209-.004 2.419-.005 3.628-.004.983 0 1.967 0 2.95-.002l.85-.001.426-.001c2.666-.004 5.332-.003 7.998-.002 2.438.001 4.877-.003 7.316-.01 2.504-.006 5.008-.009 7.512-.008 1.405 0 2.811 0 4.217-.005 1.322-.005 2.644-.004 3.966 0 .486 0 .971 0 1.457-.003.662-.004 1.324-.002 1.986.002l.584-.007c.857.011 1.474.035 2.164.575.577.644.672 1.007.656 1.867-.306.69-.524.928-1.158 1.35-.397.05-.397.05-.864.05l-.54.004-.593-.002-.63.003c-.7.002-1.4.002-2.1.002-.5 0-1 .002-1.501.004-1.22.003-2.44.004-3.661.004l-2.975.002c-2.811.004-5.622.005-8.433.005h-.92c-2.46 0-4.92.004-7.38.009-2.525.006-5.05.008-7.575.008-1.418 0-2.836 0-4.254.005-1.334.004-2.667.004-4 0-.49 0-.98.001-1.47.004-.668.003-1.335.001-2.003-.002l-.591.006c-.833-.008-1.324-.024-2.054-.452-.511-.587-.56-1-.56-1.771.447-1.034 1.092-1.615 2.233-1.618Z"/></svg>